<svg xmlns="http://www.w3.org/2000/svg" width="99" height="74" viewBox="0 0 99 74" version="1.1"><path d="M 18 1.428 C 3.181 5.540, -0 11.664, -0 36.076 C 0 59.602, 2.990 66.397, 15.219 70.659 C 19.843 72.271, 23.858 72.500, 47.500 72.500 L 74.500 72.500 80.091 69.878 C 88.492 65.938, 92 59.745, 92 48.851 L 92 43 79.617 43 C 68.296 43, 67.191 43.163, 66.737 44.898 C 65.843 48.315, 61.653 50.051, 52.794 50.676 C 41.688 51.460, 31.651 50.347, 28.764 48.012 C 26.739 46.373, 26.464 45.139, 26.163 36.308 C 25.867 27.629, 26.068 26.138, 27.824 23.968 C 29.753 21.584, 30.309 21.488, 44.228 21.160 C 61.254 20.758, 65.362 21.819, 66.480 26.907 L 67.159 30 79.685 30 L 92.212 30 91.856 22.177 C 91.572 15.925, 91.016 13.647, 89.090 10.836 C 85.899 6.179, 81.070 2.985, 74.741 1.343 C 67.852 -0.444, 24.511 -0.379, 18 1.428 M 55 24.500 C 55 25.325, 55.675 26, 56.500 26 C 57.325 26, 58.900 26.900, 60 28 C 61.100 29.100, 62.675 30, 63.500 30 C 65.780 30, 65.291 26.317, 62.777 24.557 C 59.879 22.527, 55 22.491, 55 24.500 M 31.625 28.285 C 29.586 29.776, 28.466 36.342, 29.401 41.325 C 30.294 46.085, 33.627 47.303, 44.540 46.854 C 55.034 46.423, 56 45.540, 56 36.380 C 56 27.590, 55.190 27, 43.120 27 C 36.766 27, 32.771 27.447, 31.625 28.285 M 36.709 32.624 C 36.319 33.014, 36 35.031, 36 37.105 C 36 40.777, 36.113 40.894, 40.250 41.512 C 42.587 41.861, 45.765 41.664, 47.310 41.075 C 49.796 40.127, 50.085 39.570, 49.810 36.252 L 49.500 32.500 43.459 32.208 C 40.136 32.047, 37.099 32.234, 36.709 32.624" stroke="none" fill="#fc932c" fill-rule="evenodd"/></svg>