<?xml version="1.0" encoding="UTF-8"?>
<!DOCTYPE svg PUBLIC "-//W3C//DTD SVG 1.1//EN" "http://www.w3.org/Graphics/SVG/1.1/DTD/svg11.dtd">
<svg xmlns="http://www.w3.org/2000/svg" version="1.1" width="400px" height="400px" style="shape-rendering:geometricPrecision; text-rendering:geometricPrecision; image-rendering:optimizeQuality; fill-rule:evenodd; clip-rule:evenodd" xmlns:xlink="http://www.w3.org/1999/xlink">
<g><path style="opacity:1" fill="#003063" d="M -0.5,-0.5 C 132.833,-0.5 266.167,-0.5 399.5,-0.5C 399.5,132.833 399.5,266.167 399.5,399.5C 266.167,399.5 132.833,399.5 -0.5,399.5C -0.5,266.167 -0.5,132.833 -0.5,-0.5 Z"/></g>
<g><path style="opacity:1" fill="#8aa3bb" d="M 197.5,38.5 C 207.269,37.7632 216.602,39.0965 225.5,42.5C 223.369,43.3138 221.036,43.8138 218.5,44C 215.741,46.4837 216.074,47.6503 219.5,47.5C 219.34,49.1992 219.506,50.8659 220,52.5C 222.782,54.1404 225.615,55.6404 228.5,57C 227.584,57.2784 226.918,57.7784 226.5,58.5C 218.53,55.0916 210.197,53.4249 201.5,53.5C 197.573,52.8622 193.573,52.0289 189.5,51C 193.366,50.4978 197.033,49.4978 200.5,48C 198.865,46.2518 196.865,45.0851 194.5,44.5C 195.833,43.5 195.833,42.5 194.5,41.5C 195.77,40.7124 196.77,39.7124 197.5,38.5 Z"/></g>
<g><path style="opacity:1" fill="#4f7297" d="M 188.5,38.5 C 188.833,38.5 189.167,38.5 189.5,38.5C 187.601,40.2691 185.268,41.6024 182.5,42.5C 183.383,43.548 184.05,44.7147 184.5,46C 183.614,48.1118 183.614,50.2784 184.5,52.5C 186.216,52.6287 187.883,52.962 189.5,53.5C 179.703,55.5621 170.703,59.5621 162.5,65.5C 159.903,65.2792 159.903,64.7792 162.5,64C 160.043,62.8456 160.043,61.5123 162.5,60C 160.043,58.4877 160.043,57.1544 162.5,56C 162.943,54.4815 162.276,53.3148 160.5,52.5C 161.025,51.8076 161.692,51.3076 162.5,51C 161.748,50.3292 161.414,49.4959 161.5,48.5C 169.888,43.5921 178.888,40.2588 188.5,38.5 Z"/></g>
<g><path style="opacity:1" fill="#0a305b" d="M 269.5,78.5 C 268.833,78.5 268.5,78.1667 268.5,77.5C 265.017,70.8732 260.35,65.2066 254.5,60.5C 246.644,51.7308 236.977,45.7308 225.5,42.5C 216.602,39.0965 207.269,37.7632 197.5,38.5C 194.833,38.5 192.167,38.5 189.5,38.5C 189.167,38.5 188.833,38.5 188.5,38.5C 190.091,37.7811 191.591,36.7811 193,35.5C 203.626,36.0616 214.46,37.2283 225.5,39C 230.07,40.7229 234.403,42.8895 238.5,45.5C 241.428,46.4841 244.428,46.8174 247.5,46.5C 247.338,48.5273 247.505,50.5273 248,52.5C 251.414,54.9017 255.08,56.9017 259,58.5C 262.689,63.222 265.856,68.222 268.5,73.5C 269.452,75.0453 269.785,76.712 269.5,78.5 Z"/></g>
<g><path style="opacity:1" fill="#6d8aa8" d="M 189.5,38.5 C 192.167,38.5 194.833,38.5 197.5,38.5C 196.77,39.7124 195.77,40.7124 194.5,41.5C 195.833,42.5 195.833,43.5 194.5,44.5C 196.865,45.0851 198.865,46.2518 200.5,48C 197.033,49.4978 193.366,50.4978 189.5,51C 193.573,52.0289 197.573,52.8622 201.5,53.5C 197.5,53.5 193.5,53.5 189.5,53.5C 187.883,52.962 186.216,52.6287 184.5,52.5C 183.614,50.2784 183.614,48.1118 184.5,46C 184.05,44.7147 183.383,43.548 182.5,42.5C 185.268,41.6024 187.601,40.2691 189.5,38.5 Z"/></g>
<g><path style="opacity:1" fill="#b0c2d4" d="M 225.5,42.5 C 236.977,45.7308 246.644,51.7308 254.5,60.5C 252.114,59.6267 250.114,58.1267 248.5,56C 244.882,56.3349 242.548,54.8349 241.5,51.5C 240.5,52.8333 239.5,52.8333 238.5,51.5C 236.362,53.0326 235.695,54.8659 236.5,57C 235.833,57.3333 235.167,57.6667 234.5,58C 234.605,60.4624 236.271,61.6291 239.5,61.5C 239.5,62.8333 239.5,64.1667 239.5,65.5C 242.5,65.1667 243.833,66.5 243.5,69.5C 238.103,65.4394 232.436,61.7727 226.5,58.5C 226.918,57.7784 227.584,57.2784 228.5,57C 225.615,55.6404 222.782,54.1404 220,52.5C 219.506,50.8659 219.34,49.1992 219.5,47.5C 216.074,47.6503 215.741,46.4837 218.5,44C 221.036,43.8138 223.369,43.3138 225.5,42.5 Z"/></g>
<g><path style="opacity:1" fill="#d0dce7" d="M 254.5,60.5 C 260.35,65.2066 265.017,70.8732 268.5,77.5C 264.811,76.1378 262.478,73.4711 261.5,69.5C 260.311,68.5713 258.978,68.238 257.5,68.5C 258.076,72.1219 257.076,75.1219 254.5,77.5C 254.917,81.2348 256.584,83.2348 259.5,83.5C 260.408,87.8611 261.408,92.1945 262.5,96.5C 262.376,97.1067 262.043,97.44 261.5,97.5C 259.874,93.6159 257.874,89.9492 255.5,86.5C 252.739,79.9857 248.739,74.319 243.5,69.5C 243.833,66.5 242.5,65.1667 239.5,65.5C 239.5,64.1667 239.5,62.8333 239.5,61.5C 236.271,61.6291 234.605,60.4624 234.5,58C 235.167,57.6667 235.833,57.3333 236.5,57C 235.695,54.8659 236.362,53.0326 238.5,51.5C 239.5,52.8333 240.5,52.8333 241.5,51.5C 242.548,54.8349 244.882,56.3349 248.5,56C 250.114,58.1267 252.114,59.6267 254.5,60.5 Z"/></g>
<g><path style="opacity:1" fill="#2f5881" d="M 161.5,48.5 C 161.414,49.4959 161.748,50.3292 162.5,51C 161.692,51.3076 161.025,51.8076 160.5,52.5C 162.276,53.3148 162.943,54.4815 162.5,56C 160.043,57.1544 160.043,58.4877 162.5,60C 160.043,61.5123 160.043,62.8456 162.5,64C 159.903,64.7792 159.903,65.2792 162.5,65.5C 158.527,68.8062 154.86,72.4729 151.5,76.5C 150.265,76.7214 149.265,77.3881 148.5,78.5C 147.859,76.7045 146.859,75.2045 145.5,74C 147.733,70.5582 148.067,66.8915 146.5,63C 146.864,60.6804 148.197,58.5138 150.5,56.5C 153.597,53.1116 157.264,50.4449 161.5,48.5 Z"/></g>
<g><path style="opacity:1" fill="#1f4a77" d="M 150.5,56.5 C 148.197,58.5138 146.864,60.6804 146.5,63C 148.067,66.8915 147.733,70.5582 145.5,74C 146.859,75.2045 147.859,76.7045 148.5,78.5C 149.265,77.3881 150.265,76.7214 151.5,76.5C 147.592,79.9655 144.925,84.2988 143.5,89.5C 142.265,89.7214 141.265,90.3881 140.5,91.5C 139.749,90.624 139.249,89.624 139,88.5C 138.346,89.6956 137.846,89.6956 137.5,88.5C 138.392,81.7104 138.726,75.0437 138.5,68.5C 140.5,66.329 142.334,63.9957 144,61.5C 145.777,59.2101 147.944,57.5434 150.5,56.5 Z"/></g>
<g><path style="opacity:1" fill="#ebf0f4" d="M 268.5,77.5 C 268.5,78.1667 268.833,78.5 269.5,78.5C 269.5,78.8333 269.5,79.1667 269.5,79.5C 273.024,85.7389 275.358,92.4056 276.5,99.5C 271.056,100.108 266.056,99.4417 261.5,97.5C 262.043,97.44 262.376,97.1067 262.5,96.5C 261.408,92.1945 260.408,87.8611 259.5,83.5C 256.584,83.2348 254.917,81.2348 254.5,77.5C 257.076,75.1219 258.076,72.1219 257.5,68.5C 258.978,68.238 260.311,68.5713 261.5,69.5C 262.478,73.4711 264.811,76.1378 268.5,77.5 Z"/></g>
<g><path style="opacity:1" fill="#0f3d6d" d="M 138.5,68.5 C 138.726,75.0437 138.392,81.7104 137.5,88.5C 137.846,89.6956 138.346,89.6956 139,88.5C 139.249,89.624 139.749,90.624 140.5,91.5C 141.265,90.3881 142.265,89.7214 143.5,89.5C 141.065,92.3739 139.731,95.7073 139.5,99.5C 135.445,99.8242 131.445,99.4909 127.5,98.5C 127.463,94.4157 127.797,89.9157 128.5,85C 130.826,78.8043 134.16,73.3043 138.5,68.5 Z"/></g>
<g><path style="opacity:1" fill="#083158" d="M 269.5,79.5 C 271.804,80.8707 273.804,82.7041 275.5,85C 276.204,88.1275 276.704,91.2942 277,94.5C 277.772,95.8491 278.939,96.6824 280.5,97C 298.83,97.4999 317.164,97.6666 335.5,97.5C 335.67,98.8221 335.337,99.9887 334.5,101C 308.261,101.171 282.094,101.671 256,102.5C 247.937,101.804 239.937,101.47 232,101.5C 229.833,101.833 227.667,102.167 225.5,102.5C 224.833,103.167 224.167,103.833 223.5,104.5C 252.158,105.524 280.825,106.19 309.5,106.5C 319.992,106.476 330.326,105.809 340.5,104.5C 341.386,105.325 341.719,106.325 341.5,107.5C 299.791,107.822 258.124,107.489 216.5,106.5C 213.681,102.337 210.015,99.337 205.5,97.5C 207.547,97.5111 209.547,97.8444 211.5,98.5C 214.29,97.4032 217.123,96.4032 220,95.5C 220.5,95.8333 221,96.1667 221.5,96.5C 219.599,97.935 219.266,99.6017 220.5,101.5C 221.833,100.833 222.833,99.8333 223.5,98.5C 235.5,97.8333 247.5,97.1667 259.5,96.5C 257.565,93.352 256.232,90.0187 255.5,86.5C 257.874,89.9492 259.874,93.6159 261.5,97.5C 266.056,99.4417 271.056,100.108 276.5,99.5C 275.358,92.4056 273.024,85.7389 269.5,79.5 Z"/></g>
<g><path style="opacity:1" fill="#1e314d" d="M 205.5,97.5 C 199.071,96.6977 193.071,97.8644 187.5,101C 185.536,102.451 184.203,104.284 183.5,106.5C 182.833,106.5 182.5,106.833 182.5,107.5C 182.167,107.5 181.833,107.5 181.5,107.5C 180.665,106.057 179.332,105.057 177.5,104.5C 179.046,103.316 180.713,102.316 182.5,101.5C 181.754,100.264 181.421,98.9305 181.5,97.5C 184.493,98.1346 187.493,98.3013 190.5,98C 189.289,97.1072 189.289,96.2739 190.5,95.5C 195.632,96.1208 200.632,96.7875 205.5,97.5 Z"/></g>
<g><path style="opacity:1" fill="#e2953a" d="M 205.5,97.5 C 210.015,99.337 213.681,102.337 216.5,106.5C 216.833,107.167 217.167,107.833 217.5,108.5C 217.5,108.833 217.5,109.167 217.5,109.5C 216.325,109.719 215.325,109.386 214.5,108.5C 213.692,103.931 211.025,102.098 206.5,103C 207.833,104.667 207.833,106.333 206.5,108C 208.569,109.523 210.903,110.357 213.5,110.5C 212.377,113.375 211.544,116.375 211,119.5C 208.833,121.667 206.667,123.833 204.5,126C 200.789,126.825 197.122,126.659 193.5,125.5C 192.873,124.583 192.539,123.583 192.5,122.5C 188.507,118.219 188.507,113.719 192.5,109C 192.355,108.228 192.022,107.561 191.5,107C 195.821,106.501 200.154,106.334 204.5,106.5C 204.993,104.194 205.326,101.861 205.5,99.5C 204.167,99.5 202.833,99.5 201.5,99.5C 201.5,100.5 201.5,101.5 201.5,102.5C 200.167,102.5 198.833,102.5 197.5,102.5C 197.5,101.5 197.5,100.5 197.5,99.5C 192.355,101.002 187.689,103.336 183.5,106.5C 184.203,104.284 185.536,102.451 187.5,101C 193.071,97.8644 199.071,96.6977 205.5,97.5 Z"/></g>
<g><path style="opacity:1" fill="#1f2b27" d="M 216.5,106.5 C 258.124,107.489 299.791,107.822 341.5,107.5C 341.5,107.833 341.5,108.167 341.5,108.5C 300.167,108.5 258.833,108.5 217.5,108.5C 217.167,107.833 216.833,107.167 216.5,106.5 Z"/></g>
<g><path style="opacity:1" fill="#fbfdfc" d="M 127.5,109.5 C 130.5,109.5 133.5,109.5 136.5,109.5C 136.5,109.833 136.5,110.167 136.5,110.5C 136.5,161.167 136.5,211.833 136.5,262.5C 137.5,262.5 138.5,262.5 139.5,262.5C 153.849,262.833 168.182,262.499 182.5,261.5C 190.01,251.456 199.343,249.289 210.5,255C 213.783,257.772 216.45,260.939 218.5,264.5C 220.796,274.966 217.463,282.966 208.5,288.5C 202.226,291.056 195.892,291.056 189.5,288.5C 185.976,286.136 183.31,282.969 181.5,279C 161.503,278.5 141.503,278.333 121.5,278.5C 121.5,227.167 121.5,175.833 121.5,124.5C 121.611,123.883 121.944,123.383 122.5,123C 113.074,123.126 103.908,122.292 95,120.5C 93.2987,122.223 91.7987,123.389 90.5,124C 91.1647,180.846 91.8314,237.679 92.5,294.5C 91.9422,296.591 91.6089,298.758 91.5,301C 92.0085,302.169 92.8419,303.002 94,303.5C 141.096,302.669 188.263,302.169 235.5,302C 236.624,301.751 237.624,301.251 238.5,300.5C 235.836,297.643 236.17,295.143 239.5,293C 238.107,291.829 237.273,290.329 237,288.5C 236.174,268.593 236.341,248.76 237.5,229C 265.405,228.172 293.239,228.339 321,229.5C 323.058,228.771 324.891,227.771 326.5,226.5C 326.5,218.833 326.5,211.167 326.5,203.5C 295.833,203.5 265.167,203.5 234.5,203.5C 234.5,184.833 234.5,166.167 234.5,147.5C 264.174,147.833 293.841,147.5 323.5,146.5C 324.804,143.87 326.47,141.537 328.5,139.5C 338.773,132.449 348.273,133.449 357,142.5C 359.996,147.77 361.162,153.437 360.5,159.5C 354.437,173.017 344.437,176.85 330.5,171C 327.794,168.629 325.461,165.963 323.5,163C 298.836,162.5 274.169,162.333 249.5,162.5C 249.5,171.167 249.5,179.833 249.5,188.5C 279.5,188.5 309.5,188.5 339.5,188.5C 340.492,188.328 341.158,188.662 341.5,189.5C 341.5,207.167 341.5,224.833 341.5,242.5C 311.5,242.5 281.5,242.5 251.5,242.5C 250.833,242.5 250.167,242.5 249.5,242.5C 247.974,243.492 247.307,244.992 247.5,247C 248.401,269.35 248.734,291.85 248.5,314.5C 192.5,314.5 136.5,314.5 80.5,314.5C 80.5,246.5 80.5,178.5 80.5,110.5C 96.3422,110.83 112.009,110.496 127.5,109.5 Z"/></g>
<g><path style="opacity:1" fill="#c28e4d" d="M 217.5,109.5 C 217.5,109.167 217.5,108.833 217.5,108.5C 258.833,108.5 300.167,108.5 341.5,108.5C 341.5,111.5 341.5,114.5 341.5,117.5C 341.167,117.5 340.833,117.5 340.5,117.5C 340.756,115.208 340.423,113.041 339.5,111C 298.792,110.822 258.125,110.322 217.5,109.5 Z"/></g>
<g><path style="opacity:1" fill="#0a2e54" d="M 218.5,264.5 C 216.45,260.939 213.783,257.772 210.5,255C 199.343,249.289 190.01,251.456 182.5,261.5C 168.182,262.499 153.849,262.833 139.5,262.5C 137.843,211.881 136.843,161.214 136.5,110.5C 136.5,110.167 136.5,109.833 136.5,109.5C 117.674,108.503 98.674,108.17 79.5,108.5C 96.5076,107.77 113.674,107.103 131,106.5C 133.528,106.725 136.028,107.058 138.5,107.5C 138.5,158.5 138.5,209.5 138.5,260.5C 152.516,260.833 166.516,260.499 180.5,259.5C 183.283,256.502 185.95,253.336 188.5,250C 193.414,250.133 198.414,249.966 203.5,249.5C 206.167,249.667 208.833,249.833 211.5,250C 213.291,252.918 215.124,255.751 217,258.5C 217.813,260.436 218.313,262.436 218.5,264.5 Z"/></g>
<g><path style="opacity:1" fill="#1e2f45" d="M 181.5,108.5 C 178.452,118.438 180.786,126.771 188.5,133.5C 186.685,132.37 184.685,131.704 182.5,131.5C 182.5,130.167 182.5,128.833 182.5,127.5C 181.07,127.421 179.736,127.754 178.5,128.5C 178.167,128 177.833,127.5 177.5,127C 179.14,123.976 178.807,121.31 176.5,119C 177.743,116.386 177.409,113.886 175.5,111.5C 175.482,109.627 175.982,109.294 177,110.5C 178.47,109.733 179.97,109.067 181.5,108.5 Z"/></g>
<g><path style="opacity:1" fill="#092f59" d="M 78.5,111.5 C 78.1675,180.002 78.5008,248.335 79.5,316.5C 136.039,317.175 192.706,317.841 249.5,318.5C 192.47,318.183 135.303,318.516 78,319.5C 75.6702,315.886 74.5036,311.886 74.5,307.5C 75.3193,242.512 75.8193,177.512 76,112.5C 76.3418,110.381 77.1751,110.047 78.5,111.5 Z"/></g>
<g><path style="opacity:1" fill="#f59420" d="M 192.5,122.5 C 192.539,123.583 192.873,124.583 193.5,125.5C 197.122,126.659 200.789,126.825 204.5,126C 206.667,123.833 208.833,121.667 211,119.5C 211.544,116.375 212.377,113.375 213.5,110.5C 210.903,110.357 208.569,109.523 206.5,108C 207.833,106.333 207.833,104.667 206.5,103C 211.025,102.098 213.692,103.931 214.5,108.5C 215.325,109.386 216.325,109.719 217.5,109.5C 258.125,110.322 298.792,110.822 339.5,111C 340.423,113.041 340.756,115.208 340.5,117.5C 340.5,118.5 340.5,119.5 340.5,120.5C 299.549,122.155 258.549,123.155 217.5,123.5C 217.5,123.833 217.5,124.167 217.5,124.5C 216.265,124.721 215.265,125.388 214.5,126.5C 213.719,125.271 213.219,123.938 213,122.5C 211.167,124.333 209.333,126.167 207.5,128C 208.357,128.689 209.023,129.522 209.5,130.5C 207.604,131.466 205.604,131.799 203.5,131.5C 205.222,154.787 205.889,178.121 205.5,201.5C 201.894,201.789 198.394,201.456 195,200.5C 194.196,180.646 194.363,160.813 195.5,141C 195.387,138.601 194.387,136.768 192.5,135.5C 192.5,134.167 191.833,133.5 190.5,133.5C 186.939,130.056 184.106,126.056 182,121.5C 181.436,116.806 181.603,112.14 182.5,107.5C 182.5,106.833 182.833,106.5 183.5,106.5C 187.689,103.336 192.355,101.002 197.5,99.5C 197.5,100.5 197.5,101.5 197.5,102.5C 198.833,102.5 200.167,102.5 201.5,102.5C 201.5,101.5 201.5,100.5 201.5,99.5C 202.833,99.5 204.167,99.5 205.5,99.5C 205.326,101.861 204.993,104.194 204.5,106.5C 200.154,106.334 195.821,106.501 191.5,107C 192.022,107.561 192.355,108.228 192.5,109C 188.507,113.719 188.507,118.219 192.5,122.5 Z"/></g>
<g><path style="opacity:1" fill="#262b32" d="M 205.5,109.5 C 206.11,110.391 206.443,111.391 206.5,112.5C 202.379,110.256 198.046,109.923 193.5,111.5C 193.5,110.833 193.5,110.167 193.5,109.5C 197.5,108.167 201.5,108.167 205.5,109.5 Z"/></g>
<g><path style="opacity:1" fill="#c09255" d="M 205.5,109.5 C 201.5,108.167 197.5,108.167 193.5,109.5C 193.611,108.883 193.944,108.383 194.5,108C 196.333,107.833 198.167,107.667 200,107.5C 202.295,107.547 204.129,108.213 205.5,109.5 Z"/></g>
<g><path style="opacity:1" fill="#c9985d" d="M 181.5,107.5 C 181.833,107.5 182.167,107.5 182.5,107.5C 181.603,112.14 181.436,116.806 182,121.5C 184.106,126.056 186.939,130.056 190.5,133.5C 189.833,133.5 189.167,133.5 188.5,133.5C 180.786,126.771 178.452,118.438 181.5,108.5C 181.5,108.167 181.5,107.833 181.5,107.5 Z"/></g>
<g><path style="opacity:1" fill="#2a2a26" d="M 206.5,112.5 C 209.117,116.061 208.784,119.395 205.5,122.5C 206.324,119.236 206.658,115.902 206.5,112.5 Z"/></g>
<g><path style="opacity:1" fill="#07305e" d="M 206.5,112.5 C 206.658,115.902 206.324,119.236 205.5,122.5C 195.022,125.599 191.022,121.932 193.5,111.5C 198.046,109.923 202.379,110.256 206.5,112.5 Z"/></g>
<g><path style="opacity:1" fill="#e09839" d="M 340.5,120.5 C 340.5,121.5 340.5,122.5 340.5,123.5C 299.5,123.5 258.5,123.5 217.5,123.5C 258.549,123.155 299.549,122.155 340.5,120.5 Z"/></g>
<g><path style="opacity:1" fill="#282b2f" d="M 193.5,111.5 C 191.022,121.932 195.022,125.599 205.5,122.5C 201.289,126.386 196.956,126.386 192.5,122.5C 191.508,119.221 191.341,115.888 192,112.5C 192.383,111.944 192.883,111.611 193.5,111.5 Z"/></g>
<g><path style="opacity:1" fill="#c89f65" d="M 340.5,117.5 C 340.833,117.5 341.167,117.5 341.5,117.5C 341.5,119.833 341.5,122.167 341.5,124.5C 300.167,124.5 258.833,124.5 217.5,124.5C 217.5,124.167 217.5,123.833 217.5,123.5C 258.5,123.5 299.5,123.5 340.5,123.5C 340.5,122.5 340.5,121.5 340.5,120.5C 340.5,119.5 340.5,118.5 340.5,117.5 Z"/></g>
<g><path style="opacity:1" fill="#eefbfd" d="M 121.5,124.5 C 112.5,124.5 103.5,124.5 94.5,124.5C 94.5,183.5 94.5,242.5 94.5,301.5C 141.167,301.5 187.833,301.5 234.5,301.5C 234.5,276.833 234.5,252.167 234.5,227.5C 234.5,227.167 234.5,226.833 234.5,226.5C 265.167,226.5 295.833,226.5 326.5,226.5C 324.891,227.771 323.058,228.771 321,229.5C 293.239,228.339 265.405,228.172 237.5,229C 236.341,248.76 236.174,268.593 237,288.5C 237.273,290.329 238.107,291.829 239.5,293C 236.17,295.143 235.836,297.643 238.5,300.5C 237.624,301.251 236.624,301.751 235.5,302C 188.263,302.169 141.096,302.669 94,303.5C 92.8419,303.002 92.0085,302.169 91.5,301C 91.6089,298.758 91.9422,296.591 92.5,294.5C 91.8314,237.679 91.1647,180.846 90.5,124C 91.7987,123.389 93.2987,122.223 95,120.5C 103.908,122.292 113.074,123.126 122.5,123C 121.944,123.383 121.611,123.883 121.5,124.5 Z"/></g>
<g><path style="opacity:1" fill="#232a32" d="M 341.5,108.5 C 342.825,114.234 342.825,120.068 341.5,126C 300.5,126.333 259.5,126.667 218.5,127C 217.619,127.708 216.953,128.542 216.5,129.5C 214.704,130.793 213.037,132.293 211.5,134C 210.552,134.483 209.552,134.649 208.5,134.5C 208.5,134.167 208.5,133.833 208.5,133.5C 212.478,131.522 215.478,128.522 217.5,124.5C 258.833,124.5 300.167,124.5 341.5,124.5C 341.5,122.167 341.5,119.833 341.5,117.5C 341.5,114.5 341.5,111.5 341.5,108.5 Z"/></g>
<g><path style="opacity:1" fill="#0d2c42" d="M 136.5,110.5 C 136.843,161.214 137.843,211.881 139.5,262.5C 138.5,262.5 137.5,262.5 136.5,262.5C 136.5,211.833 136.5,161.167 136.5,110.5 Z"/></g>
<g><path style="opacity:1" fill="#adc6e2" d="M 79.5,108.5 C 98.674,108.17 117.674,108.503 136.5,109.5C 133.5,109.5 130.5,109.5 127.5,109.5C 111.5,109.5 95.5,109.5 79.5,109.5C 79.5,178.5 79.5,247.5 79.5,316.5C 78.5008,248.335 78.1675,180.002 78.5,111.5C 78.2627,110.209 78.596,109.209 79.5,108.5 Z"/></g>
<g><path style="opacity:1" fill="#0c2d4e" d="M 121.5,124.5 C 121.5,175.833 121.5,227.167 121.5,278.5C 141.503,278.333 161.503,278.5 181.5,279C 183.31,282.969 185.976,286.136 189.5,288.5C 187.801,288.66 186.134,288.494 184.5,288C 183.671,286.184 182.837,284.351 182,282.5C 181.329,281.748 180.496,281.414 179.5,281.5C 160.671,280.668 141.671,280.168 122.5,280C 121.584,279.626 120.75,279.126 120,278.5C 120.467,228.191 120.634,177.858 120.5,127.5C 120.082,126.778 119.416,126.278 118.5,126C 110.841,125.5 103.174,125.334 95.5,125.5C 95.1677,182.669 95.501,239.669 96.5,296.5C 96.5,297.833 96.5,299.167 96.5,300.5C 142.167,300.5 187.833,300.5 233.5,300.5C 233.816,279.633 233.483,258.8 232.5,238C 233.062,234.346 233.729,230.846 234.5,227.5C 234.5,252.167 234.5,276.833 234.5,301.5C 187.833,301.5 141.167,301.5 94.5,301.5C 94.5,242.5 94.5,183.5 94.5,124.5C 103.5,124.5 112.5,124.5 121.5,124.5 Z"/></g>
<g><path style="opacity:1" fill="#003065" d="M 179.5,281.5 C 180.496,281.414 181.329,281.748 182,282.5C 182.837,284.351 183.671,286.184 184.5,288C 186.134,288.494 187.801,288.66 189.5,288.5C 189.804,289.15 190.137,289.817 190.5,290.5C 174.833,290.833 159.167,291.167 143.5,291.5C 127.485,291.499 111.819,290.833 96.5,289.5C 98.3084,289.509 99.9751,289.009 101.5,288C 99.5069,234.716 98.8402,181.216 99.5,127.5C 102.833,127.5 106.167,127.5 109.5,127.5C 109.333,180.501 109.5,233.501 110,286.5C 115.352,284.109 115.852,280.943 111.5,277C 114.872,274.403 114.872,272.57 111.5,271.5C 111.5,223.5 111.5,175.5 111.5,127.5C 112.822,127.33 113.989,127.663 115,128.5C 115.594,175.845 115.594,223.178 115,270.5C 116,271.167 117,271.833 118,272.5C 117.167,279.667 120.333,282.833 127.5,282C 128.337,283.011 128.67,284.178 128.5,285.5C 144.503,285.667 160.503,285.5 176.5,285C 175.663,283.989 175.33,282.822 175.5,281.5C 176.833,281.5 178.167,281.5 179.5,281.5 Z"/></g>
<g><path style="opacity:1" fill="#003162" d="M 120.5,127.5 C 120.634,177.858 120.467,228.191 120,278.5C 120.75,279.126 121.584,279.626 122.5,280C 141.671,280.168 160.671,280.668 179.5,281.5C 178.167,281.5 176.833,281.5 175.5,281.5C 175.33,282.822 175.663,283.989 176.5,285C 160.503,285.5 144.503,285.667 128.5,285.5C 128.67,284.178 128.337,283.011 127.5,282C 120.333,282.833 117.167,279.667 118,272.5C 117,271.833 116,271.167 115,270.5C 115.594,223.178 115.594,175.845 115,128.5C 113.989,127.663 112.822,127.33 111.5,127.5C 111.5,175.5 111.5,223.5 111.5,271.5C 114.872,272.57 114.872,274.403 111.5,277C 115.852,280.943 115.352,284.109 110,286.5C 109.5,233.501 109.333,180.501 109.5,127.5C 106.167,127.5 102.833,127.5 99.5,127.5C 98.8402,181.216 99.5069,234.716 101.5,288C 99.9751,289.009 98.3084,289.509 96.5,289.5C 96.5,235.167 96.5,180.833 96.5,126.5C 104.542,126.264 112.542,126.597 120.5,127.5 Z"/></g>
<g><path style="opacity:1" fill="#ea9630" d="M 217.5,124.5 C 215.478,128.522 212.478,131.522 208.5,133.5C 206.51,156.142 205.844,179.142 206.5,202.5C 201.833,202.5 197.167,202.5 192.5,202.5C 192.5,180.167 192.5,157.833 192.5,135.5C 194.387,136.768 195.387,138.601 195.5,141C 194.363,160.813 194.196,180.646 195,200.5C 198.394,201.456 201.894,201.789 205.5,201.5C 205.889,178.121 205.222,154.787 203.5,131.5C 205.604,131.799 207.604,131.466 209.5,130.5C 209.023,129.522 208.357,128.689 207.5,128C 209.333,126.167 211.167,124.333 213,122.5C 213.219,123.938 213.719,125.271 214.5,126.5C 215.265,125.388 216.265,124.721 217.5,124.5 Z"/></g>
<g><path style="opacity:1" fill="#c39253" d="M 190.5,133.5 C 191.833,133.5 192.5,134.167 192.5,135.5C 192.5,157.833 192.5,180.167 192.5,202.5C 197.167,202.5 201.833,202.5 206.5,202.5C 205.844,179.142 206.51,156.142 208.5,133.5C 208.5,133.833 208.5,134.167 208.5,134.5C 207.502,157.327 207.169,180.327 207.5,203.5C 202.167,203.5 196.833,203.5 191.5,203.5C 191.823,180.092 191.489,156.758 190.5,133.5 Z"/></g>
<g><path style="opacity:1" fill="#152e4f" d="M 216.5,129.5 C 216.963,132.482 217.296,135.482 217.5,138.5C 215.005,137.801 212.672,136.801 210.5,135.5C 210.682,137.675 211.349,139.675 212.5,141.5C 211.691,160.809 211.191,180.142 211,199.5C 210.178,201.788 209.511,204.122 209,206.5C 208.439,205.978 207.772,205.645 207,205.5C 202.653,206.09 198.487,207.09 194.5,208.5C 194.69,206.041 193.69,204.374 191.5,203.5C 196.833,203.5 202.167,203.5 207.5,203.5C 207.169,180.327 207.502,157.327 208.5,134.5C 209.552,134.649 210.552,134.483 211.5,134C 213.037,132.293 214.704,130.793 216.5,129.5 Z"/></g>
<g><path style="opacity:1" fill="#202a30" d="M 188.5,133.5 C 189.167,133.5 189.833,133.5 190.5,133.5C 191.489,156.758 191.823,180.092 191.5,203.5C 190.668,181.337 190.168,159.004 190,136.5C 189.487,135.473 188.987,134.473 188.5,133.5 Z"/></g>
<g><path style="opacity:1" fill="#133255" d="M 328.5,139.5 C 326.47,141.537 324.804,143.87 323.5,146.5C 293.841,147.5 264.174,147.833 234.5,147.5C 234.5,166.167 234.5,184.833 234.5,203.5C 265.167,203.5 295.833,203.5 326.5,203.5C 326.5,211.167 326.5,218.833 326.5,226.5C 295.833,226.5 265.167,226.5 234.5,226.5C 263.33,225.668 292.33,225.168 321.5,225C 322.416,224.626 323.25,224.126 324,223.5C 324.83,217.804 324.663,212.137 323.5,206.5C 322.5,206 321.5,205.5 320.5,205C 291.068,204.535 261.735,204.368 232.5,204.5C 232.013,203.554 231.68,202.554 231.5,201.5C 234.167,184.167 234.167,166.833 231.5,149.5C 231.529,147.971 232.196,146.804 233.5,146C 262.446,146.642 291.446,146.642 320.5,146C 322.871,144.594 324.538,142.594 325.5,140C 326.448,139.517 327.448,139.351 328.5,139.5 Z"/></g>
<g><path style="opacity:1" fill="#123151" d="M 347.5,159.5 C 342.015,164.971 337.182,164.304 333,157.5C 332.573,147.422 337.073,144.088 346.5,147.5C 349.356,150.624 350.189,154.291 349,158.5C 348.617,159.056 348.117,159.389 347.5,159.5 Z"/></g>
<g><path style="opacity:1" fill="#033061" d="M 347.5,159.5 C 343.865,160.114 340.198,160.448 336.5,160.5C 336.33,159.178 336.663,158.011 337.5,157C 334.562,147.058 337.729,144.891 347,150.5C 347.498,153.482 347.665,156.482 347.5,159.5 Z"/></g>
<g><path style="opacity:1" fill="#07315a" d="M 360.5,159.5 C 361.178,162.346 362.512,164.846 364.5,167C 363.027,172.792 361.027,172.958 358.5,167.5C 355.234,170.136 355.234,172.47 358.5,174.5C 351.487,174.237 344.487,175.071 337.5,177C 340.063,177.763 340.063,178.263 337.5,178.5C 310.19,177.35 282.857,177.184 255.5,178C 254,178.833 252.833,180 252,181.5C 251.667,175.5 251.333,169.5 251,163.5C 250.333,171.167 250.333,178.833 251,186.5C 252.297,185.216 253.464,185.383 254.5,187C 283.003,187.168 311.336,187.668 339.5,188.5C 309.5,188.5 279.5,188.5 249.5,188.5C 249.5,179.833 249.5,171.167 249.5,162.5C 274.169,162.333 298.836,162.5 323.5,163C 325.461,165.963 327.794,168.629 330.5,171C 344.437,176.85 354.437,173.017 360.5,159.5 Z"/></g>
<g><path style="opacity:1" fill="#023161" d="M 254.5,164.5 C 276.996,163.337 299.663,163.17 322.5,164C 323.167,165.667 323.833,167.333 324.5,169C 324.167,169.333 323.833,169.667 323.5,170C 327.179,170.471 328.512,172.305 327.5,175.5C 325.538,174.366 323.538,174.366 321.5,175.5C 320.287,175.253 319.62,174.586 319.5,173.5C 319.5,172.167 319.5,170.833 319.5,169.5C 298.5,169.5 277.5,169.5 256.5,169.5C 256.598,167.447 255.931,165.78 254.5,164.5 Z"/></g>
<g><path style="opacity:1" fill="#022e68" d="M 254.5,164.5 C 255.931,165.78 256.598,167.447 256.5,169.5C 277.5,169.5 298.5,169.5 319.5,169.5C 319.5,170.833 319.5,172.167 319.5,173.5C 298.167,173.5 276.833,173.5 255.5,173.5C 255.085,171.253 254.418,169.086 253.5,167C 253.528,165.93 253.861,165.097 254.5,164.5 Z"/></g>
<g><path style="opacity:1" fill="#0c2d4e" d="M 341.5,189.5 C 342.239,189.369 342.906,189.536 343.5,190C 342.198,207.791 342.198,225.624 343.5,243.5C 341.658,243.723 339.825,244.057 338,244.5C 309.016,243.853 280.183,243.186 251.5,242.5C 281.5,242.5 311.5,242.5 341.5,242.5C 341.5,224.833 341.5,207.167 341.5,189.5 Z"/></g>
<g><path style="opacity:1" fill="#03315c" d="M 120.5,127.5 C 112.542,126.597 104.542,126.264 96.5,126.5C 96.5,180.833 96.5,235.167 96.5,289.5C 111.819,290.833 127.485,291.499 143.5,291.5C 159.167,291.167 174.833,290.833 190.5,290.5C 190.137,289.817 189.804,289.15 189.5,288.5C 195.892,291.056 202.226,291.056 208.5,288.5C 208.807,290.446 208.807,292.113 208.5,293.5C 171.217,293.38 133.884,293.38 96.5,293.5C 96.5,294.5 96.5,295.5 96.5,296.5C 95.501,239.669 95.1677,182.669 95.5,125.5C 103.174,125.334 110.841,125.5 118.5,126C 119.416,126.278 120.082,126.778 120.5,127.5 Z"/></g>
<g><path style="opacity:1" fill="#f1fefe" d="M 127.5,109.5 C 112.009,110.496 96.3422,110.83 80.5,110.5C 80.5,178.5 80.5,246.5 80.5,314.5C 136.5,314.5 192.5,314.5 248.5,314.5C 248.734,291.85 248.401,269.35 247.5,247C 247.307,244.992 247.974,243.492 249.5,242.5C 249.5,267.167 249.5,291.833 249.5,316.5C 192.833,316.5 136.167,316.5 79.5,316.5C 79.5,247.5 79.5,178.5 79.5,109.5C 95.5,109.5 111.5,109.5 127.5,109.5 Z"/></g>
<g><path style="opacity:1" fill="#0c315e" d="M 196.5,262.5 C 207.619,263.047 210.619,268.214 205.5,278C 197.6,281.732 192.6,279.399 190.5,271C 191.187,267.16 193.187,264.327 196.5,262.5 Z"/></g>
<g><path style="opacity:1" fill="#0a2a44" d="M 79.5,316.5 C 136.167,316.5 192.833,316.5 249.5,316.5C 249.5,317.167 249.5,317.833 249.5,318.5C 192.706,317.841 136.039,317.175 79.5,316.5 Z"/></g>
</svg>
