<svg xmlns="http://www.w3.org/2000/svg" width="591" height="591" viewBox="0 0 591 591" version="1.1"><path d="M 19.463 20.248 C 19.201 20.937, 19.104 106.550, 19.246 210.500 L 19.505 399.500 19.753 209.750 L 20 20 295.497 20 L 570.995 20 571.251 209.500 L 571.508 399 571.504 209.250 L 571.500 19.500 295.719 19.248 C 75.619 19.047, 19.843 19.249, 19.463 20.248 M 201.446 205.500 C 201.447 223.100, 201.583 230.159, 201.749 221.187 C 201.914 212.215, 201.914 197.815, 201.748 189.187 C 201.581 180.559, 201.446 187.900, 201.446 205.500 M 56.236 181.734 L 66.972 182.065 67.258 213.033 L 67.543 244.001 67.522 212.750 L 67.500 181.500 56.500 181.451 L 45.500 181.402 56.236 181.734 M 85.789 181.741 C 89.248 181.937, 94.648 181.936, 97.789 181.738 C 100.930 181.540, 98.100 181.380, 91.500 181.382 C 84.900 181.384, 82.330 181.546, 85.789 181.741 M 139.250 181.746 C 145.162 181.923, 154.838 181.923, 160.750 181.746 C 166.662 181.569, 161.825 181.425, 150 181.425 C 138.175 181.425, 133.338 181.569, 139.250 181.746 M 265.652 181.750 C 265.396 182.162, 271.557 182.383, 279.343 182.241 C 305.835 181.756, 308.542 181.403, 287.309 181.201 C 275.654 181.091, 265.908 181.338, 265.652 181.750 M 354.296 181.744 C 358.583 181.932, 365.333 181.931, 369.296 181.742 C 373.258 181.552, 369.750 181.399, 361.500 181.400 C 353.250 181.401, 350.008 181.556, 354.296 181.744 M 418.789 181.741 C 422.248 181.937, 427.648 181.936, 430.789 181.738 C 433.930 181.540, 431.100 181.380, 424.500 181.382 C 417.900 181.384, 415.330 181.546, 418.789 181.741 M 392.430 209 C 392.430 221.925, 392.573 227.213, 392.747 220.750 C 392.921 214.287, 392.921 203.712, 392.747 197.250 C 392.573 190.787, 392.430 196.075, 392.430 209 M 325.425 209 C 325.425 220.825, 325.569 225.662, 325.746 219.750 C 325.923 213.838, 325.923 204.162, 325.746 198.250 C 325.569 192.338, 325.425 197.175, 325.425 209 M 443.419 211 C 443.419 221.725, 443.566 226.113, 443.746 220.750 C 443.925 215.387, 443.925 206.613, 443.746 201.250 C 443.566 195.887, 443.419 200.275, 443.419 211 M 132.750 248.747 C 140.037 248.918, 151.963 248.918, 159.250 248.747 C 166.537 248.577, 160.575 248.437, 146 248.437 C 131.425 248.437, 125.463 248.577, 132.750 248.747 M 202.191 248.747 C 209.171 248.918, 220.871 248.919, 228.191 248.748 C 235.511 248.577, 229.800 248.436, 215.500 248.436 C 201.200 248.435, 195.211 248.575, 202.191 248.747 M 269.750 248.747 C 277.038 248.918, 288.962 248.918, 296.250 248.747 C 303.538 248.577, 297.575 248.437, 283 248.437 C 268.425 248.437, 262.462 248.577, 269.750 248.747 M 351.250 248.745 C 356.063 248.928, 363.938 248.928, 368.750 248.745 C 373.563 248.561, 369.625 248.411, 360 248.411 C 350.375 248.411, 346.438 248.561, 351.250 248.745 M 417.250 248.743 C 421.512 248.931, 428.488 248.931, 432.750 248.743 C 437.012 248.556, 433.525 248.402, 425 248.402 C 416.475 248.402, 412.988 248.556, 417.250 248.743 M 297.750 262.706 C 298.988 262.944, 301.012 262.944, 302.250 262.706 C 303.488 262.467, 302.475 262.272, 300 262.272 C 297.525 262.272, 296.512 262.467, 297.750 262.706 M 330.750 262.744 C 335.288 262.929, 342.712 262.929, 347.250 262.744 C 351.788 262.559, 348.075 262.407, 339 262.407 C 329.925 262.407, 326.212 262.559, 330.750 262.744 M 296.392 277 C 296.392 284.425, 296.549 287.462, 296.742 283.750 C 296.934 280.038, 296.934 273.962, 296.742 270.250 C 296.549 266.538, 296.392 269.575, 296.392 277 M 331.400 284.500 C 331.401 292.750, 331.556 295.992, 331.744 291.704 C 331.932 287.417, 331.931 280.667, 331.742 276.704 C 331.552 272.742, 331.399 276.250, 331.400 284.500 M 144.232 283 C 144.232 284.925, 144.438 285.712, 144.689 284.750 C 144.941 283.788, 144.941 282.212, 144.689 281.250 C 144.438 280.288, 144.232 281.075, 144.232 283 M 207.467 286.224 C 207.183 286.965, 207.086 295.429, 207.251 305.035 L 207.550 322.500 207.775 304.250 L 208 286 211.476 286 L 214.953 286 215.263 303.001 L 215.573 320.002 215.536 302.751 L 215.500 285.500 211.742 285.189 C 209.280 284.986, 207.806 285.343, 207.467 286.224 M 244.233 285.690 L 247.966 286.119 248.259 311.309 L 248.551 336.500 248.525 311 L 248.500 285.500 244.500 285.381 L 240.500 285.262 244.233 285.690 M 440.474 286.207 C 440.194 286.938, 440.085 298.778, 440.232 312.518 L 440.500 337.500 444 337.631 L 447.500 337.761 444.250 337.317 L 441 336.873 441 311.437 L 441 286 444.434 286 C 447.318 286, 447.937 286.402, 448.305 288.512 C 448.707 290.813, 448.733 290.792, 448.622 288.262 C 448.514 285.817, 448.068 285.464, 444.742 285.189 C 442.302 284.987, 440.805 285.344, 440.474 286.207 M 483.714 285.619 C 482.758 286.575, 482.793 336.754, 483.750 337.346 C 484.163 337.602, 484.373 326.153, 484.218 311.905 L 483.935 286 487.500 286 L 491.065 286 490.782 311.951 C 490.627 326.225, 490.845 337.557, 491.268 337.134 C 491.690 336.711, 491.915 324.920, 491.768 310.932 L 491.500 285.500 487.964 285.202 C 486.020 285.039, 484.107 285.226, 483.714 285.619 M 240.407 303 C 240.407 312.075, 240.559 315.788, 240.744 311.250 C 240.929 306.712, 240.929 299.288, 240.744 294.750 C 240.559 290.212, 240.407 293.925, 240.407 303 M 540.694 293.532 C 539.151 294.889, 538.285 296, 538.770 296 C 539.255 296, 540.708 294.875, 542 293.500 C 544.989 290.319, 544.328 290.335, 540.694 293.532 M 448.411 320 C 448.411 329.625, 448.561 333.563, 448.745 328.750 C 448.928 323.938, 448.928 316.063, 448.745 311.250 C 448.561 306.438, 448.411 310.375, 448.411 320 M 330.997 322.203 C 330.724 330.839, 330.850 337.555, 331.278 337.125 C 331.705 336.696, 331.929 329.630, 331.775 321.422 L 331.494 306.500 330.997 322.203 M 401.784 307.738 C 404.689 307.941, 409.189 307.939, 411.784 307.734 C 414.378 307.528, 412 307.363, 406.500 307.365 C 401 307.368, 398.878 307.536, 401.784 307.738 M 403.776 313.733 C 406.128 313.945, 409.728 313.942, 411.776 313.727 C 413.824 313.512, 411.900 313.339, 407.500 313.343 C 403.100 313.346, 401.424 313.522, 403.776 313.733 M 546.232 322 C 546.232 323.925, 546.438 324.712, 546.689 323.750 C 546.941 322.788, 546.941 321.212, 546.689 320.250 C 546.438 319.288, 546.232 320.075, 546.232 322 M 240.404 335 C 240.483 337.067, 241.019 337.516, 243.500 337.593 C 246.203 337.677, 246.234 337.647, 243.811 337.284 C 242.006 337.015, 240.988 336.162, 240.714 334.691 C 240.380 332.892, 240.324 332.947, 240.404 335 M 293.872 333.750 C 292.642 335.318, 292.674 335.364, 294.173 334.192 C 295.623 333.057, 295.889 333.190, 296.173 335.192 C 296.428 336.991, 297.162 337.521, 299.500 337.593 C 302.330 337.681, 302.345 337.663, 299.750 337.280 C 297.614 336.964, 297 336.330, 297 334.437 C 297 331.570, 295.790 331.304, 293.872 333.750 M 417.762 337.707 C 419.006 337.946, 420.806 337.937, 421.762 337.687 C 422.718 337.437, 421.700 337.241, 419.500 337.252 C 417.300 337.263, 416.518 337.468, 417.762 337.707 M 19 429.365 L 19 433.731 79 433.615 L 138.999 433.500 139 429.250 L 139 425 79 425 L 19 425 19 429.365 M 215 430.031 C 215 436.044, 213.129 437.410, 209.527 434.025 C 206.319 431.012, 200.394 431.936, 196.436 436.067 C 194.890 437.680, 193.034 439, 192.310 439 C 191.587 439, 189.369 437.200, 187.381 435 C 184.520 431.833, 183.062 431, 180.384 431 C 178.523 431, 177 431.255, 177 431.566 C 177 433.539, 180.036 436.698, 187.097 442.074 C 199.130 451.234, 200.908 455.207, 196.909 464 C 195.784 466.475, 194.440 470.719, 193.923 473.430 C 192.962 478.473, 190.693 482, 188.410 482 C 187.706 482, 179.879 479.697, 171.016 476.882 C 162.153 474.068, 154.737 471.930, 154.535 472.132 C 154.334 472.335, 153.859 475.655, 153.479 479.511 L 152.789 486.522 156.623 487.908 C 158.732 488.671, 163.098 491.814, 166.326 494.892 C 169.553 497.970, 174.513 502.094, 177.347 504.056 C 183.170 508.087, 184.517 511.402, 180.719 512.356 C 177.665 513.122, 174.050 512.064, 166.228 508.116 C 160.895 505.423, 159.867 505.183, 159.357 506.512 C 158.405 508.994, 161.737 511.749, 168.366 513.960 C 171.740 515.085, 176.006 516.925, 177.847 518.047 C 180.942 519.935, 181.162 520.405, 180.765 524.294 C 180.174 530.086, 174.294 549.481, 171.391 555.212 C 169.028 559.878, 163.045 565, 159.959 565 C 159.092 565, 157.556 565.604, 156.547 566.342 C 154.794 567.624, 154.818 567.759, 157.078 569.342 C 160.553 571.776, 168.226 571.408, 178.543 568.312 C 190.481 564.729, 201.107 564.507, 205.645 567.743 C 208.099 569.494, 210.186 569.992, 215.145 570.010 C 218.640 570.023, 231.696 570.267, 244.158 570.552 L 266.815 571.072 268.475 566.076 C 270.481 560.035, 270.697 554.978, 269.577 540.298 L 268.721 529.096 265.111 527.382 C 263.002 526.381, 259.108 525.667, 255.750 525.667 C 250.376 525.667, 250 525.513, 250 523.309 C 250 520.249, 253.256 519.004, 261.315 518.985 C 271.466 518.961, 274.067 516.501, 272.541 508.369 C 272.007 505.521, 271.491 505.004, 269.205 505.026 C 267.717 505.040, 264.046 506.615, 261.046 508.526 C 252.494 513.974, 249.435 512.988, 253.030 505.941 C 254.189 503.670, 256.925 498.890, 259.111 495.318 C 268.714 479.629, 275.927 455.867, 276.737 437.250 L 277.270 425 262.658 425 C 245.271 425, 245.596 424.773, 243.936 438.086 C 242.407 450.342, 239.037 454.698, 237.039 447 C 236.467 444.800, 235.508 441.087, 234.907 438.750 C 234.305 436.413, 232.900 432.363, 231.783 429.750 L 229.754 425 222.377 425 L 215 425 215 430.031 M 296.644 431.659 C 295.740 435.322, 293.915 440.689, 292.589 443.587 L 290.177 448.854 294.339 449.500 C 300.735 450.493, 302 451.011, 302 452.635 C 302 453.585, 301.359 453.954, 300.250 453.640 C 299.288 453.369, 296.587 452.849, 294.250 452.485 L 290 451.824 290 472.912 L 290 494 293 494 C 295.333 494, 296 494.444, 296 496 C 296 497.556, 295.333 498, 293 498 C 290.333 498, 290 498.333, 290 501 C 290 503.440, 290.418 504, 292.239 504 C 295.073 504, 302.991 507.214, 302.996 508.366 C 302.998 508.843, 300.075 508.920, 296.500 508.537 C 290.614 507.907, 290 508.014, 290.002 509.670 C 290.004 511.235, 290.972 511.537, 296.696 511.755 C 303.076 511.999, 305.412 513.096, 304.653 515.491 C 304.471 516.067, 301.332 516.344, 297.170 516.152 L 290 515.820 290.006 531.660 L 290.013 547.500 293.071 549.241 C 296.478 551.179, 296.173 553, 292.441 553 C 290.034 553, 290 553.125, 290 562 L 290 571 318 571 L 346 571 346 562 L 346 553 341.500 553 C 335.989 553, 335.888 552.230, 340.408 544.724 C 343.349 539.838, 343.904 537.864, 344.466 530.282 C 344.825 525.452, 345.361 520.220, 345.659 518.656 L 346.200 515.811 338.850 516.151 C 332.074 516.464, 331.500 516.336, 331.500 514.508 C 331.500 512.896, 332.437 512.382, 336.500 511.764 C 339.250 511.346, 342.512 511.236, 343.750 511.521 C 345.473 511.917, 346 511.595, 346 510.144 C 346 508.840, 345.066 508.063, 343 507.650 C 339.200 506.890, 339.028 504.245, 342.750 503.816 C 344.910 503.568, 345.568 502.910, 345.816 500.750 C 346.101 498.279, 345.822 498, 343.066 498 C 340.667 498, 340 497.565, 340 496 C 340 494.444, 340.667 494, 343 494 L 346 494 346 473 C 346 456.835, 345.712 452.014, 344.750 452.060 C 344.063 452.092, 341.363 452.471, 338.750 452.901 C 335.160 453.492, 334 453.372, 334 452.409 C 334 451.004, 335.414 450.471, 341.750 449.485 C 345.885 448.842, 346 448.721, 346 445.041 L 346 441.258 331.250 440.006 C 316.873 438.785, 310 437.183, 310 435.051 C 310 433.666, 312.825 433.748, 322.500 435.415 C 326.900 436.172, 333.988 437.102, 338.250 437.481 L 346 438.171 346 431.585 L 346 425 322.144 425 L 298.287 425 296.644 431.659 M 394 427.755 C 383.729 431.259, 371.462 431.480, 365.055 428.279 C 362.610 427.057, 360.397 426.270, 360.137 426.530 C 359.877 426.789, 360.471 431.614, 361.455 437.251 C 362.440 442.888, 363.464 449.075, 363.730 451 C 364.005 452.993, 365.463 455.816, 367.115 457.556 L 370.015 460.611 366.948 463.550 C 364.073 466.305, 363.923 466.804, 364.566 471.495 C 365.603 479.052, 366.279 480.150, 370.971 481.894 C 377.713 484.400, 377.862 485.266, 373.671 497.639 C 371.648 503.613, 369.990 510.300, 369.986 512.500 C 369.978 516.967, 375.070 570.300, 375.556 570.850 C 376.090 571.452, 403.735 568.936, 407.062 567.982 C 409.513 567.279, 411.069 567.505, 413.968 568.984 C 422.860 573.520, 434.168 572.162, 435.619 566.383 C 436.333 563.539, 430.850 524.858, 428.364 515.201 C 425.664 504.714, 426.960 498.736, 433.041 493.619 C 436.586 490.636, 439.560 490.292, 442.081 492.573 C 443.412 493.777, 443.625 494.820, 442.993 497.024 C 442.539 498.607, 442.304 506.337, 442.472 514.201 C 442.738 526.749, 443.164 529.845, 445.951 539.487 C 449.823 552.882, 452 562.987, 452 567.565 L 452 571 464.318 571 C 476.539 571, 476.668 570.976, 480.639 567.924 L 484.641 564.848 484.292 532.969 L 483.942 501.091 489.221 502.644 C 496.614 504.819, 496.534 504.832, 496.196 501.500 C 496.029 499.850, 495.933 487.636, 495.982 474.359 C 496.104 441.727, 494.211 432.755, 486.048 427.253 C 482.426 424.812, 478.063 424.361, 474.828 426.092 C 472.839 427.157, 472.864 427.265, 475.843 430.342 C 477.523 432.079, 479.607 435.198, 480.472 437.273 C 482.004 440.944, 481.979 441.111, 479.568 443.523 C 476.466 446.625, 474.452 446.622, 465.407 443.500 C 456.103 440.289, 455 440.715, 455 447.518 C 455 452.182, 454.638 453.126, 452.005 455.342 C 446.861 459.670, 445.049 459.721, 441.311 455.642 C 439.453 453.615, 438 450.958, 438 449.587 C 438 446.304, 441.935 443.387, 447.488 442.554 C 449.970 442.182, 452 441.455, 452 440.939 C 452 440.422, 451.558 440, 451.017 440 C 450.476 440, 447.767 437.116, 444.997 433.591 C 441.894 429.642, 438.759 426.763, 436.831 426.091 C 435.019 425.459, 426.924 425.042, 417.601 425.099 C 403.101 425.187, 400.754 425.452, 394 427.755 M 514 425.566 C 514 425.877, 514.440 426.954, 514.978 427.959 C 515.705 429.318, 515.352 430.921, 513.598 434.219 C 509.065 442.745, 507.719 472.701, 510.571 501.589 C 513.601 532.286, 513.931 556.933, 511.461 568.176 L 510.841 571 540.921 571 L 571 571 571 497.970 L 571 424.940 558.250 425.220 L 545.500 425.500 544.407 432.165 C 542.186 445.697, 539.993 447.991, 531.885 445.258 C 525.284 443.033, 523.934 441.075, 526.270 437.120 C 528.015 434.166, 528.512 429.499, 527.393 426.582 C 526.927 425.368, 525.300 425, 520.393 425 C 516.877 425, 514 425.255, 514 425.566 M 201.024 438.205 C 198.918 440.465, 198.800 442.100, 200.696 442.732 C 202.250 443.250, 205 440.181, 205 437.929 C 205 435.387, 203.555 435.488, 201.024 438.205 M 373.695 437.111 C 370.921 438.724, 369.973 442.315, 371.170 446.665 C 372.321 450.846, 380.638 460, 383.286 460 C 385.749 460, 388 457.133, 388 453.996 C 388 452.059, 388.616 450.939, 389.908 450.529 C 390.957 450.196, 392.085 449.221, 392.415 448.361 C 393.272 446.127, 389.012 439.058, 385.810 437.402 C 382.638 435.761, 376.277 435.609, 373.695 437.111 M 26.500 441 L 20.500 441.500 20.218 452.051 L 19.936 462.602 29.218 463.978 C 41.422 465.786, 67.552 465.816, 87.500 464.044 C 101.697 462.783, 103.089 462.504, 99.850 461.562 C 92.971 459.561, 89.757 454.107, 93.584 450.930 C 95.697 449.177, 115.993 447.812, 117.829 449.299 C 118.737 450.035, 119.054 452.222, 118.829 456.190 C 118.508 461.869, 118.560 462.004, 121.099 462.002 C 122.529 462.001, 127.141 462.291, 131.349 462.647 L 139 463.293 139 452.147 L 139 441 132.750 440.856 C 115.323 440.453, 31.703 440.566, 26.500 441 M 214.165 441.013 C 209.557 441.698, 208.040 443.113, 208.015 446.750 C 207.991 450.252, 212.304 449.667, 216.765 445.564 C 221.192 441.491, 220.391 440.087, 214.165 441.013 M 408.337 442.477 C 404.209 445.368, 404.609 451.805, 409.222 456.730 C 411.478 459.138, 414.483 459.021, 418.750 456.358 C 422.368 454.100, 421.863 448.228, 417.702 444.196 C 414.083 440.688, 411.553 440.224, 408.337 442.477 M 224.820 445.750 C 220.141 451.244, 216.911 457.444, 217.196 460.380 C 217.473 463.219, 217.814 463.500, 220.987 463.500 C 225.363 463.500, 226.516 461.292, 227.386 451.250 C 228.027 443.853, 227.463 442.646, 224.820 445.750 M 166 447 C 164.384 448.616, 163.986 450.394, 163.930 456.250 C 163.891 460.238, 163.497 464.400, 163.053 465.500 C 161.697 468.866, 163.701 470, 171.006 470 C 177.585 470, 177.861 469.896, 181.257 466.137 C 184.045 463.051, 184.984 460.911, 185.928 455.492 C 187.263 447.828, 186.986 447.249, 181.372 445.946 C 174.509 444.354, 168.215 444.785, 166 447 M 247.535 452.839 C 235.988 461.717, 233 465.535, 233 471.415 C 233 474.862, 233.727 476.365, 237.455 480.627 C 244.447 488.620, 250.951 490.057, 254.642 484.424 C 256.279 481.925, 256.244 481.825, 252.655 478.867 C 246.553 473.838, 248.216 469.333, 258.843 462.096 C 264.860 457.998, 267.314 455.578, 268.316 452.752 C 268.791 451.413, 267.716 450.304, 263.718 448.011 C 260.848 446.365, 258.275 445.055, 258 445.099 C 257.725 445.143, 253.016 448.626, 247.535 452.839 M 310 447.264 C 310 448.097, 310.873 449.841, 311.939 451.139 L 313.878 453.500 316.150 451.261 C 318.797 448.653, 318.014 447.353, 313.219 446.394 C 310.727 445.895, 310 446.092, 310 447.264 M 297 459.500 C 297 460.548, 298.056 461, 300.500 461 C 302.944 461, 304 460.548, 304 459.500 C 304 458.452, 302.944 458, 300.500 458 C 298.056 458, 297 458.452, 297 459.500 M 317.454 461.074 C 316.785 462.157, 320.642 467, 322.174 467 C 323.441 467, 323.154 462.554, 321.800 461.200 C 320.311 459.711, 318.332 459.653, 317.454 461.074 M 340.500 464.491 C 339.950 464.675, 338.275 465.095, 336.778 465.425 C 333.785 466.084, 329.763 469.808, 330.594 471.151 C 330.882 471.618, 333.566 472, 336.559 472 L 342 472 342 468 C 342 465.800, 341.887 464.036, 341.750 464.079 C 341.613 464.122, 341.050 464.308, 340.500 464.491 M 298.861 465.688 C 296.351 466.091, 296.273 466.279, 297.272 469.534 C 298.198 472.552, 298.629 472.884, 300.911 472.338 C 302.335 471.998, 304.793 471.067, 306.374 470.270 C 308.802 469.045, 309.035 468.611, 307.874 467.476 C 306.219 465.857, 302.457 465.111, 298.861 465.688 M 421.990 467.807 C 420.075 469.358, 419.858 470.200, 420.458 473.749 C 421.340 478.973, 423.024 480.406, 427.329 479.598 C 433.554 478.430, 437.026 472.574, 433.872 468.564 C 431.395 465.415, 425.415 465.034, 421.990 467.807 M 114.500 468.724 C 112.850 468.958, 103.624 470.665, 93.998 472.517 C 72.660 476.623, 55.911 478.469, 48.455 477.538 C 44.923 477.096, 40.146 475.398, 35.469 472.920 C 30.392 470.230, 26.804 469, 24.035 469 L 20 469 20 520 L 20 571 79.500 571 L 139 571 139 519.500 L 139 468 128.250 468.150 C 122.338 468.232, 116.150 468.491, 114.500 468.724 M 393.280 473.045 C 390.710 474.050, 389.728 477.074, 390.180 482.595 C 390.475 486.191, 390.757 486.525, 393.750 486.813 C 395.538 486.986, 397 487.371, 397 487.669 C 397 487.967, 396.256 490.976, 395.346 494.356 C 394.322 498.157, 393.675 504.505, 393.648 511 C 393.594 524.300, 395.753 532.399, 400.605 537.102 C 403.466 539.875, 404 541.094, 404 544.854 C 404 548.553, 404.707 550.232, 408.141 554.683 C 410.419 557.635, 412.411 559.922, 412.569 559.765 C 412.726 559.607, 412 550.390, 410.954 539.283 C 409.908 528.176, 408.978 511.981, 408.888 503.294 C 408.797 494.607, 408.280 486.938, 407.739 486.250 C 407.198 485.563, 405.460 485, 403.878 485 C 402.295 485, 401 484.523, 401 483.941 C 401 483.359, 401.339 483.091, 401.752 483.347 C 402.166 483.603, 402.639 481.599, 402.804 478.894 C 403.009 475.518, 402.695 473.850, 401.801 473.572 C 398.162 472.440, 395.281 472.262, 393.280 473.045 M 217.466 479.250 C 215.539 481.038, 213.563 483.926, 213.074 485.669 L 212.186 488.838 216.843 489.440 C 219.404 489.771, 222.850 489.656, 224.500 489.184 C 227.284 488.387, 227.496 487.996, 227.442 483.747 C 227.339 475.550, 223.380 473.765, 217.466 479.250 M 448.750 477.572 C 445.007 479.603, 445.136 483.095, 449.077 486.411 C 452.149 488.996, 454.432 489.539, 457.418 488.393 C 459.261 487.686, 459.610 481.008, 457.965 477.934 C 456.718 475.605, 452.668 475.446, 448.750 477.572 M 159.174 479.735 C 159.536 481.696, 170.581 487.616, 175.750 488.619 C 180.895 489.618, 179.877 486.623, 174.250 484.205 C 160.846 478.445, 158.825 477.845, 159.174 479.735 M 472.200 480.200 C 470.413 481.987, 470.747 487.467, 472.750 489.234 C 473.712 490.083, 475.981 491.092, 477.791 491.477 C 484.825 492.973, 488.818 485.996, 483.686 481.174 C 481.095 478.741, 474.241 478.159, 472.200 480.200 M 296.502 482.374 C 294.052 484.167, 294.691 484.913, 299.320 485.665 C 305.807 486.717, 313.482 484.118, 308.250 482.640 C 302.782 481.096, 298.384 480.996, 296.502 482.374 M 312.872 494.250 C 312.802 494.387, 312.639 495.512, 312.509 496.750 C 312.285 498.888, 312.616 499, 319.137 499 C 325.791 499, 326 498.924, 326 496.500 C 326 494.090, 325.767 494, 319.500 494 C 315.925 494, 312.943 494.113, 312.872 494.250 M 178 496.345 C 178 500.149, 188.009 503.024, 189.324 499.598 C 190.031 497.756, 189.177 497, 186.392 497 C 185.141 497, 183.840 496.550, 183.500 496 C 182.572 494.499, 178 494.786, 178 496.345 M 195.250 498.662 C 191.599 500.135, 195.973 506, 200.723 506 C 202.580 506, 203 505.454, 203 503.035 C 203 499.101, 199.315 497.022, 195.250 498.662 M 464.500 499.563 C 462.850 500.416, 461.012 501.651, 460.415 502.307 C 459.819 502.963, 457.625 510.588, 455.540 519.252 C 452.295 532.738, 451.813 536.191, 452.190 543.252 C 452.689 552.586, 454.525 557.500, 457.513 557.500 C 459.078 557.500, 459.909 556.173, 461.426 551.248 C 463.193 545.513, 463.646 544.915, 466.926 544.004 C 468.892 543.458, 471.486 543.009, 472.691 543.006 C 475.973 542.997, 476.232 541.732, 474.584 533.755 C 473.256 527.322, 473.250 525.643, 474.539 519.482 C 476.499 510.117, 476.411 508.745, 473.483 502.967 C 470.750 497.573, 469.365 497.048, 464.500 499.563 M 210.250 506.732 C 200.943 507.570, 207.792 514.848, 219.631 516.701 C 222.581 517.163, 222.865 516.921, 224.550 512.509 C 227.071 505.907, 225.675 505.343, 210.250 506.732 M 191.798 516.750 C 189.776 519.091, 185.961 534.795, 185.300 543.500 C 184.938 548.259, 185.205 551.528, 186.134 553.712 L 187.500 556.925 197.965 550.712 C 203.721 547.296, 211.553 541.545, 215.370 537.934 C 221.353 532.271, 222.221 531.017, 221.672 528.828 C 221.315 527.406, 219.276 525.125, 217.039 523.644 C 213.840 521.528, 211.853 521, 207.080 521 C 201.171 521, 198.458 522.409, 201.122 524.096 C 201.880 524.577, 204.101 524.976, 206.059 524.985 C 210.271 525.003, 213.668 527.110, 212.509 528.985 C 211.908 529.958, 209.643 530.114, 203.237 529.621 C 198.575 529.263, 194.364 528.725, 193.880 528.426 C 192.565 527.613, 192.881 523.832, 194.500 521 C 196.318 517.820, 196.391 515, 194.655 515 C 193.915 515, 192.630 515.788, 191.798 516.750 M 320.315 520.061 C 319.114 520.515, 317.661 521.765, 317.086 522.839 C 315.691 525.446, 318.047 527.456, 321.487 526.593 C 323.454 526.099, 324 525.327, 324 523.040 C 324 519.566, 323.243 518.954, 320.315 520.061 M 233.227 529.932 C 229.881 532.094, 226.601 534.877, 225.939 536.115 C 224.899 538.058, 225.041 538.615, 226.978 540.183 C 228.212 541.182, 229.847 542, 230.611 542 C 231.375 542, 232 542.450, 232 543 C 232 543.550, 231.605 544, 231.122 544 C 230.639 544, 227.039 546.967, 223.122 550.594 C 217.889 555.438, 216 557.862, 216 559.730 C 216 562.179, 216.170 562.249, 220.640 561.636 C 223.191 561.286, 229.698 561, 235.099 561 L 244.920 561 246.103 557.052 C 246.948 554.230, 247.002 551.668, 246.291 548.073 C 245.421 543.675, 245.529 542.831, 247.148 541.366 C 248.167 540.444, 249 539.256, 249 538.726 C 249 536.836, 241.832 526, 240.583 526 C 239.883 526, 236.573 527.769, 233.227 529.932 M 293 530.500 C 293 531.611, 294.167 532, 297.500 532 C 300.833 532, 302 531.611, 302 530.500 C 302 529.389, 300.833 529, 297.500 529 C 294.167 529, 293 529.389, 293 530.500 M 318.499 538.551 C 315.966 539.898, 313.420 541, 312.841 541 C 312.262 541, 310.903 542.125, 309.821 543.500 C 308.320 545.408, 306.926 546, 303.927 546 C 300.263 546, 300 546.194, 300 548.892 C 300 554.691, 306.693 553.958, 319.109 546.800 C 325.050 543.375, 326 542.440, 326 540.021 C 326 536.112, 323.871 535.695, 318.499 538.551 M 236.693 540.402 C 232.393 543.046, 233.277 544, 240.023 544 C 244.514 544, 245.572 542.889, 243.793 540.041 C 242.189 537.472, 241.394 537.513, 236.693 540.402 M 314.338 558.999 C 311.491 560.147, 310.352 563.781, 312.246 565.674 C 313.514 566.943, 314.085 566.799, 316.777 564.534 L 319.857 561.942 323.179 563.968 C 326.912 566.244, 331.003 566.597, 332.800 564.800 C 334.709 562.891, 334.296 562.374, 329.065 560.123 C 323.963 557.929, 318.101 557.481, 314.338 558.999" stroke="none" fill="#004179" fill-rule="evenodd"/><path d="M -0 295.502 L -0 591.003 295.750 590.752 L 591.500 590.500 591.752 295.250 L 592.003 -0 296.002 -0 L 0 0 -0 295.502 M 0.493 296 C 0.493 458.525, 0.609 525.013, 0.750 443.750 C 0.891 362.488, 0.891 229.513, 0.750 148.250 C 0.609 66.988, 0.493 133.475, 0.493 296 M 19.668 19.665 C 19.301 20.033, 19 105.533, 19 209.667 L 19 399 295.503 399 L 572.005 399 571.753 209.250 L 571.500 19.500 295.918 19.248 C 144.349 19.110, 20.036 19.297, 19.668 19.665 M 42.655 171.829 C 40.672 174.020, 40.488 178.330, 42.312 179.844 C 43.049 180.456, 48.860 181.058, 55.562 181.217 L 67.500 181.500 67.764 213.415 C 67.942 234.929, 68.390 245.765, 69.137 246.665 C 70.898 248.787, 77.732 248.370, 78.965 246.066 C 79.616 244.850, 80 232.412, 80 212.566 L 80 181 92.465 181 C 103.765 181, 105.026 180.819, 105.965 179.066 C 107.501 176.195, 107.233 174.233, 105 172 C 103.091 170.091, 101.667 170, 73.655 170 C 46.496 170, 44.187 170.136, 42.655 171.829 M 118.441 171.419 C 116.581 172.780, 116.500 174.363, 116.500 209.456 C 116.500 240.916, 116.711 246.206, 118 247.021 C 118.851 247.559, 131.498 247.976, 147.215 247.985 C 173.601 247.999, 174.979 247.907, 175.965 246.066 C 177.508 243.182, 177.222 240.511, 175.171 238.655 C 173.585 237.220, 170.399 237, 151.171 237 L 129 237 129 226 L 129 215 148.800 215 C 170.327 215, 171 214.833, 171 209.500 C 171 204.167, 170.327 204, 148.800 204 L 129 204 129 192.519 L 129 181.038 151.250 180.769 L 173.500 180.500 173.823 176.540 C 174.349 170.085, 173.979 170, 145.500 170 C 125.386 170, 119.996 170.283, 118.441 171.419 M 190.655 171.829 C 189.177 173.461, 189 177.644, 189 210.829 L 189 248 215.800 248 C 235.311 248, 242.926 247.674, 243.800 246.800 C 245.754 244.846, 245.283 239.222, 243.066 238.035 C 241.917 237.420, 232.985 237, 221.066 237 L 201 237 201 204.535 C 201 173.462, 200.917 172.026, 199.066 171.035 C 196.114 169.455, 192.494 169.797, 190.655 171.829 M 254.655 171.829 C 253.181 173.458, 253 177.509, 253 208.894 C 253 231.272, 253.378 244.837, 254.035 246.066 C 255.020 247.907, 256.408 248, 282.835 248 C 303.097 248, 310.924 247.676, 311.800 246.800 C 313.350 245.250, 313.350 239.750, 311.800 238.200 C 310.938 237.338, 304.311 237, 288.300 237 L 266 237 266 226 L 266 215 285.429 215 C 306.326 215, 308.019 214.601, 307.985 209.679 C 307.949 204.672, 307.409 204.533, 285.960 204 L 265.843 203.500 265.844 192.500 L 265.845 181.500 287.095 181.230 C 300.714 181.056, 308.821 180.563, 309.672 179.857 C 311.752 178.131, 311.348 172.257, 309.066 171.035 C 307.878 170.400, 297.325 170, 281.721 170 C 258.373 170, 256.176 170.148, 254.655 171.829 M 335.937 172.764 C 331.980 174.831, 330.061 176.635, 328.323 179.921 C 326.072 184.178, 326 185.088, 326 209.197 C 326 231.689, 326.183 234.436, 327.903 237.790 C 330.199 242.268, 333.522 245.496, 337.315 246.933 C 341.385 248.476, 378.240 248.360, 379.800 246.800 C 381.754 244.846, 381.283 239.222, 379.066 238.035 C 377.956 237.442, 370.090 237, 360.622 237 C 344.614 237, 344.026 236.927, 341.306 234.588 L 338.500 232.177 338.196 210.164 L 337.893 188.151 340.863 184.826 L 343.833 181.500 360.166 181.160 C 369.393 180.969, 377.044 180.371, 377.750 179.788 C 379.500 178.342, 379.309 173.452, 377.429 171.571 C 376.121 170.264, 372.950 170, 358.543 170 C 341.576 170, 341.122 170.055, 335.937 172.764 M 402.868 172.800 C 399.160 174.738, 396.817 176.819, 395.270 179.550 C 393.118 183.349, 393.032 184.466, 393.016 208.782 C 392.999 236.292, 393.313 238.218, 398.627 243.186 C 403.225 247.485, 406.003 248, 424.605 248 C 439.779 248, 442.568 247.751, 445.790 246.106 C 455.181 241.313, 456 238.338, 456 209 C 456 182.202, 455.694 180.573, 449.676 175.289 C 444.579 170.814, 440.587 170.012, 423.364 170.006 C 408.724 170, 408.053 170.092, 402.868 172.800 M 475.655 171.829 C 474.180 173.458, 474 177.535, 474 209.257 C 474 248.702, 473.883 248, 480.449 248 C 486.295 248, 486.450 247.309, 487 218.741 L 487.500 192.785 493.412 201.142 C 503.717 215.711, 505.828 218, 508.963 218 C 512.293 218, 514.576 215.590, 524 202.131 L 530.500 192.847 531 218.772 C 531.384 238.694, 531.818 245.080, 532.872 246.349 C 534.873 248.756, 541.626 248.567, 542.965 246.066 C 543.622 244.837, 544 231.218, 544 208.721 C 544 175.685, 543.877 173.199, 542.171 171.655 C 540.291 169.954, 537.352 169.544, 534.601 170.600 C 533.741 170.930, 527.780 178.580, 521.354 187.600 C 514.928 196.620, 509.363 204, 508.987 204 C 508.611 204, 503.238 196.791, 497.047 187.979 C 490.857 179.168, 484.968 171.518, 483.961 170.979 C 481.106 169.451, 477.470 169.823, 475.655 171.829 M 410.329 182.458 C 408.585 183.216, 406.672 184.744, 406.079 185.853 C 405.402 187.117, 405 195.942, 405 209.511 L 405 231.154 407.923 234.077 L 410.846 237 424.367 237 C 437.215 237, 438.028 236.880, 440.694 234.588 L 443.500 232.177 443.807 210.934 C 444.149 187.300, 443.729 185.048, 438.507 182.570 C 434.182 180.518, 414.964 180.441, 410.329 182.458 M 158.885 263.320 C 149.457 266.844, 145.060 273.181, 145.022 283.300 C 144.974 295.894, 151.232 300.740, 171.788 304.028 C 183.484 305.899, 187.937 311.590, 185.104 321.046 C 182.068 331.181, 165.151 333.732, 152.612 325.946 L 147.724 322.911 145.362 325.130 C 144.063 326.350, 143 327.699, 143 328.126 C 143 329.904, 152.320 335.123, 158.172 336.623 C 171.084 339.931, 185.237 336.136, 190.677 327.908 C 193.112 324.224, 193.500 322.657, 193.500 316.495 C 193.500 310.531, 193.088 308.742, 191 305.649 C 187.723 300.795, 180.604 297.428, 170.502 295.955 C 161.634 294.661, 155.660 292.103, 153.921 288.853 C 152.054 285.364, 153.276 276.399, 156.018 273.481 C 161.026 268.150, 173.394 267.697, 181.661 272.541 L 186.227 275.217 188.252 273.192 C 191.008 270.436, 190.159 268.949, 183.879 265.531 C 179.482 263.137, 177.093 262.559, 170.512 262.293 C 165.465 262.089, 161.162 262.469, 158.885 263.320 M 483.667 262.667 C 483.300 263.033, 483 265.058, 483 267.167 L 483 271 487.500 271 L 492 271 492 267.107 C 492 264.480, 491.486 263.017, 490.418 262.607 C 488.316 261.800, 484.499 261.834, 483.667 262.667 M 296.804 276.498 C 296.971 283.924, 296.905 290, 296.656 290 C 296.408 290, 294.246 288.880, 291.852 287.512 C 286.319 284.349, 279.321 284.182, 273.355 287.070 C 269.934 288.726, 268.520 290.277, 266.289 294.820 C 263.775 299.941, 263.500 301.534, 263.500 311 C 263.500 322.760, 264.732 327.486, 269.092 332.452 C 274.500 338.611, 286.719 339.631, 292.890 334.439 C 296.518 331.386, 297 331.393, 297 334.500 C 297 336.690, 297.433 337, 300.500 337 L 304 337 304 300 L 304 263 300.250 262.998 L 296.500 262.997 296.804 276.498 M 323 300 L 323 337 327 337 L 331 337 331 322 L 331 307 340.864 307 C 353.593 307, 360.551 305.652, 365.411 302.243 C 374.707 295.723, 376.770 280.389, 369.649 270.743 C 368.530 269.227, 365.362 266.865, 362.611 265.493 C 357.857 263.124, 356.744 263, 340.304 263 L 323 263 323 300 M 331 284.500 L 331 299 343.266 299 C 353.235 299, 356.169 298.658, 358.938 297.173 C 368.328 292.137, 368.306 276.747, 358.902 271.950 C 355.739 270.336, 353.004 270, 343.040 270 L 331 270 331 284.500 M 393.462 286.015 C 391.792 286.528, 389.135 288.293, 387.559 289.939 L 384.692 292.930 387.096 294.932 C 389.685 297.087, 391 297.500, 391 296.157 C 391 295.694, 392.492 294.511, 394.316 293.529 C 396.858 292.160, 399.196 291.843, 404.337 292.171 C 413.005 292.722, 415.140 294.637, 415.787 302.441 L 416.248 308 405.440 308 C 388.719 308, 382.995 311.750, 383.004 322.700 C 383.011 332.656, 388.847 337.448, 401 337.480 C 407.139 337.496, 409.181 337.077, 412.250 335.168 C 415.969 332.856, 416 332.854, 416 334.918 C 416 336.688, 416.613 337, 420.089 337 L 424.178 337 423.839 316.750 C 423.521 297.762, 423.359 296.273, 421.234 292.856 C 419.988 290.853, 417.288 288.394, 415.234 287.392 C 410.995 285.325, 398.322 284.524, 393.462 286.015 M 455.030 286.583 C 453.121 287.411, 450.759 288.813, 449.780 289.699 C 448.116 291.205, 448 291.137, 448 288.655 C 448 286.287, 447.621 286, 444.500 286 L 441 286 441 311.500 L 441 337 444.500 337 L 448 337 448.006 320.750 C 448.009 311.813, 448.472 302.841, 449.035 300.814 C 451.169 293.129, 460.123 289.597, 467.069 293.700 C 469.859 295.348, 470.023 295.327, 472.492 293.007 C 475.594 290.093, 475.374 289.206, 470.962 286.840 C 466.830 284.624, 459.808 284.511, 455.030 286.583 M 517.914 285.896 C 510.615 288.276, 506.833 293.314, 506.833 300.660 C 506.833 309.215, 512.464 313.250, 526 314.395 C 534.455 315.111, 538.320 317.193, 538.812 321.299 C 538.983 322.730, 538.609 324.861, 537.981 326.035 C 534.609 332.335, 517.748 332.607, 510.966 326.470 C 509.542 325.180, 509.045 325.344, 506.586 327.910 L 503.812 330.806 508.320 333.448 C 514.699 337.186, 523.436 338.644, 531.014 337.235 C 541.308 335.320, 546 330.322, 546 321.272 C 546 312.685, 541.927 309.539, 528.744 307.946 C 524.210 307.398, 519.257 306.454, 517.737 305.848 C 512.963 303.945, 512.799 296.488, 517.464 293.432 C 520.747 291.281, 530.879 291.374, 535.566 293.598 C 539.120 295.285, 539.178 295.276, 541.773 292.681 L 544.393 290.061 539.447 287.869 C 534.099 285.498, 522.417 284.428, 517.914 285.896 M 208 305.540 C 208 327.818, 208.788 330.840, 215.719 335.149 C 221.415 338.690, 231.135 338.500, 236.823 334.736 L 241 331.972 241 334.486 C 241 336.693, 241.428 337, 244.500 337 L 248 337 248 311.500 L 248 286 244.250 286.002 L 240.500 286.005 240.500 304.299 C 240.500 324.603, 240.031 326.381, 233.825 329.591 C 229.593 331.779, 222.678 330.986, 219.436 327.940 C 215.774 324.500, 215.012 320.079, 215.006 302.250 L 215 286 211.500 286 L 208 286 208 305.540 M 484 311.500 L 484 337 487.500 337 L 491 337 491 311.500 L 491 286 487.500 286 L 484 286 484 311.500 M 276.106 294.564 C 272.394 297.688, 271.011 302.283, 271.011 311.500 C 271.011 324.221, 274.093 329.666, 281.883 330.711 C 291.812 332.043, 296.182 326.186, 296.182 311.547 C 296.182 300.704, 294.548 295.852, 290.128 293.566 C 285.435 291.139, 279.690 291.548, 276.106 294.564 M 397.024 314.003 C 393.082 314.952, 389.993 318.194, 390.014 321.361 C 390.058 328.262, 393.617 331, 402.546 331 C 412.211 331, 416.713 326.257, 415.833 317 L 415.500 313.500 408 313.333 C 403.875 313.241, 398.936 313.543, 397.024 314.003 M 19 429.365 L 19 433.731 79 433.615 L 138.999 433.500 139 429.250 L 139 425 79 425 L 19 425 19 429.365 M 215 430.031 C 215 436.044, 213.129 437.410, 209.527 434.025 C 206.319 431.012, 200.394 431.936, 196.436 436.067 C 194.890 437.680, 193.034 439, 192.310 439 C 191.587 439, 189.369 437.200, 187.381 435 C 184.520 431.833, 183.062 431, 180.384 431 C 178.523 431, 177 431.255, 177 431.566 C 177 433.539, 180.036 436.698, 187.097 442.074 C 199.130 451.234, 200.908 455.207, 196.909 464 C 195.784 466.475, 194.440 470.719, 193.923 473.430 C 192.962 478.473, 190.693 482, 188.410 482 C 187.706 482, 179.879 479.697, 171.016 476.882 C 162.153 474.068, 154.737 471.930, 154.535 472.132 C 154.334 472.335, 153.859 475.655, 153.479 479.511 L 152.789 486.522 156.623 487.908 C 158.732 488.671, 163.098 491.814, 166.326 494.892 C 169.553 497.970, 174.513 502.094, 177.347 504.056 C 183.170 508.087, 184.517 511.402, 180.719 512.356 C 177.665 513.122, 174.050 512.064, 166.228 508.116 C 160.895 505.423, 159.867 505.183, 159.357 506.512 C 158.405 508.994, 161.737 511.749, 168.366 513.960 C 171.740 515.085, 176.006 516.925, 177.847 518.047 C 180.942 519.935, 181.162 520.405, 180.765 524.294 C 180.174 530.086, 174.294 549.481, 171.391 555.212 C 169.028 559.878, 163.045 565, 159.959 565 C 159.092 565, 157.556 565.604, 156.547 566.342 C 154.794 567.624, 154.818 567.759, 157.078 569.342 C 160.553 571.776, 168.226 571.408, 178.543 568.312 C 190.481 564.729, 201.107 564.507, 205.645 567.743 C 208.099 569.494, 210.186 569.992, 215.145 570.010 C 218.640 570.023, 231.696 570.267, 244.158 570.552 L 266.815 571.072 268.475 566.076 C 270.481 560.035, 270.697 554.978, 269.577 540.298 L 268.721 529.096 265.111 527.382 C 263.002 526.381, 259.108 525.667, 255.750 525.667 C 250.376 525.667, 250 525.513, 250 523.309 C 250 520.249, 253.256 519.004, 261.315 518.985 C 271.466 518.961, 274.067 516.501, 272.541 508.369 C 272.007 505.521, 271.491 505.004, 269.205 505.026 C 267.717 505.040, 264.046 506.615, 261.046 508.526 C 252.494 513.974, 249.435 512.988, 253.030 505.941 C 254.189 503.670, 256.925 498.890, 259.111 495.318 C 268.714 479.629, 275.927 455.867, 276.737 437.250 L 277.270 425 262.658 425 C 245.271 425, 245.596 424.773, 243.936 438.086 C 242.407 450.342, 239.037 454.698, 237.039 447 C 236.467 444.800, 235.508 441.087, 234.907 438.750 C 234.305 436.413, 232.900 432.363, 231.783 429.750 L 229.754 425 222.377 425 L 215 425 215 430.031 M 296.644 431.659 C 295.740 435.322, 293.915 440.689, 292.589 443.587 L 290.177 448.854 294.339 449.500 C 300.735 450.493, 302 451.011, 302 452.635 C 302 453.585, 301.359 453.954, 300.250 453.640 C 299.288 453.369, 296.587 452.849, 294.250 452.485 L 290 451.824 290 472.912 L 290 494 293 494 C 295.333 494, 296 494.444, 296 496 C 296 497.556, 295.333 498, 293 498 C 290.333 498, 290 498.333, 290 501 C 290 503.440, 290.418 504, 292.239 504 C 295.073 504, 302.991 507.214, 302.996 508.366 C 302.998 508.843, 300.075 508.920, 296.500 508.537 C 290.614 507.907, 290 508.014, 290.002 509.670 C 290.004 511.235, 290.972 511.537, 296.696 511.755 C 303.076 511.999, 305.412 513.096, 304.653 515.491 C 304.471 516.067, 301.332 516.344, 297.170 516.152 L 290 515.820 290.006 531.660 L 290.013 547.500 293.071 549.241 C 296.478 551.179, 296.173 553, 292.441 553 C 290.034 553, 290 553.125, 290 562 L 290 571 318 571 L 346 571 346 562 L 346 553 341.500 553 C 335.989 553, 335.888 552.230, 340.408 544.724 C 343.349 539.838, 343.904 537.864, 344.466 530.282 C 344.825 525.452, 345.361 520.220, 345.659 518.656 L 346.200 515.811 338.850 516.151 C 332.074 516.464, 331.500 516.336, 331.500 514.508 C 331.500 512.896, 332.437 512.382, 336.500 511.764 C 339.250 511.346, 342.512 511.236, 343.750 511.521 C 345.473 511.917, 346 511.595, 346 510.144 C 346 508.840, 345.066 508.063, 343 507.650 C 339.200 506.890, 339.028 504.245, 342.750 503.816 C 344.910 503.568, 345.568 502.910, 345.816 500.750 C 346.101 498.279, 345.822 498, 343.066 498 C 340.667 498, 340 497.565, 340 496 C 340 494.444, 340.667 494, 343 494 L 346 494 346 473 C 346 456.835, 345.712 452.014, 344.750 452.060 C 344.063 452.092, 341.363 452.471, 338.750 452.901 C 335.160 453.492, 334 453.372, 334 452.409 C 334 451.004, 335.414 450.471, 341.750 449.485 C 345.885 448.842, 346 448.721, 346 445.041 L 346 441.258 331.250 440.006 C 316.873 438.785, 310 437.183, 310 435.051 C 310 433.666, 312.825 433.748, 322.500 435.415 C 326.900 436.172, 333.988 437.102, 338.250 437.481 L 346 438.171 346 431.585 L 346 425 322.144 425 L 298.287 425 296.644 431.659 M 394 427.755 C 383.729 431.259, 371.462 431.480, 365.055 428.279 C 362.610 427.057, 360.397 426.270, 360.137 426.530 C 359.877 426.789, 360.471 431.614, 361.455 437.251 C 362.440 442.888, 363.464 449.075, 363.730 451 C 364.005 452.993, 365.463 455.816, 367.115 457.556 L 370.015 460.611 366.948 463.550 C 364.073 466.305, 363.923 466.804, 364.566 471.495 C 365.603 479.052, 366.279 480.150, 370.971 481.894 C 377.713 484.400, 377.862 485.266, 373.671 497.639 C 371.648 503.613, 369.990 510.300, 369.986 512.500 C 369.978 516.967, 375.070 570.300, 375.556 570.850 C 376.090 571.452, 403.735 568.936, 407.062 567.982 C 409.513 567.279, 411.069 567.505, 413.968 568.984 C 422.860 573.520, 434.168 572.162, 435.619 566.383 C 436.333 563.539, 430.850 524.858, 428.364 515.201 C 425.664 504.714, 426.960 498.736, 433.041 493.619 C 436.586 490.636, 439.560 490.292, 442.081 492.573 C 443.412 493.777, 443.625 494.820, 442.993 497.024 C 442.539 498.607, 442.304 506.337, 442.472 514.201 C 442.738 526.749, 443.164 529.845, 445.951 539.487 C 449.823 552.882, 452 562.987, 452 567.565 L 452 571 464.318 571 C 476.539 571, 476.668 570.976, 480.639 567.924 L 484.641 564.848 484.292 532.969 L 483.942 501.091 489.221 502.644 C 496.614 504.819, 496.534 504.832, 496.196 501.500 C 496.029 499.850, 495.933 487.636, 495.982 474.359 C 496.104 441.727, 494.211 432.755, 486.048 427.253 C 482.426 424.812, 478.063 424.361, 474.828 426.092 C 472.839 427.157, 472.864 427.265, 475.843 430.342 C 477.523 432.079, 479.607 435.198, 480.472 437.273 C 482.004 440.944, 481.979 441.111, 479.568 443.523 C 476.466 446.625, 474.452 446.622, 465.407 443.500 C 456.103 440.289, 455 440.715, 455 447.518 C 455 452.182, 454.638 453.126, 452.005 455.342 C 446.861 459.670, 445.049 459.721, 441.311 455.642 C 439.453 453.615, 438 450.958, 438 449.587 C 438 446.304, 441.935 443.387, 447.488 442.554 C 449.970 442.182, 452 441.455, 452 440.939 C 452 440.422, 451.558 440, 451.017 440 C 450.476 440, 447.767 437.116, 444.997 433.591 C 441.894 429.642, 438.759 426.763, 436.831 426.091 C 435.019 425.459, 426.924 425.042, 417.601 425.099 C 403.101 425.187, 400.754 425.452, 394 427.755 M 514 425.566 C 514 425.877, 514.440 426.954, 514.978 427.959 C 515.705 429.318, 515.352 430.921, 513.598 434.219 C 509.065 442.745, 507.719 472.701, 510.571 501.589 C 513.601 532.286, 513.931 556.933, 511.461 568.176 L 510.841 571 540.921 571 L 571 571 571 497.970 L 571 424.940 558.250 425.220 L 545.500 425.500 544.407 432.165 C 542.186 445.697, 539.993 447.991, 531.885 445.258 C 525.284 443.033, 523.934 441.075, 526.270 437.120 C 528.015 434.166, 528.512 429.499, 527.393 426.582 C 526.927 425.368, 525.300 425, 520.393 425 C 516.877 425, 514 425.255, 514 425.566 M 201.024 438.205 C 198.918 440.465, 198.800 442.100, 200.696 442.732 C 202.250 443.250, 205 440.181, 205 437.929 C 205 435.387, 203.555 435.488, 201.024 438.205 M 373.695 437.111 C 370.921 438.724, 369.973 442.315, 371.170 446.665 C 372.321 450.846, 380.638 460, 383.286 460 C 385.749 460, 388 457.133, 388 453.996 C 388 452.059, 388.616 450.939, 389.908 450.529 C 390.957 450.196, 392.085 449.221, 392.415 448.361 C 393.272 446.127, 389.012 439.058, 385.810 437.402 C 382.638 435.761, 376.277 435.609, 373.695 437.111 M 26.500 441 L 20.500 441.500 20.218 452.051 L 19.936 462.602 29.218 463.978 C 41.422 465.786, 67.552 465.816, 87.500 464.044 C 101.697 462.783, 103.089 462.504, 99.850 461.562 C 92.971 459.561, 89.757 454.107, 93.584 450.930 C 95.697 449.177, 115.993 447.812, 117.829 449.299 C 118.737 450.035, 119.054 452.222, 118.829 456.190 C 118.508 461.869, 118.560 462.004, 121.099 462.002 C 122.529 462.001, 127.141 462.291, 131.349 462.647 L 139 463.293 139 452.147 L 139 441 132.750 440.856 C 115.323 440.453, 31.703 440.566, 26.500 441 M 214.165 441.013 C 209.557 441.698, 208.040 443.113, 208.015 446.750 C 207.991 450.252, 212.304 449.667, 216.765 445.564 C 221.192 441.491, 220.391 440.087, 214.165 441.013 M 408.337 442.477 C 404.209 445.368, 404.609 451.805, 409.222 456.730 C 411.478 459.138, 414.483 459.021, 418.750 456.358 C 422.368 454.100, 421.863 448.228, 417.702 444.196 C 414.083 440.688, 411.553 440.224, 408.337 442.477 M 224.820 445.750 C 220.141 451.244, 216.911 457.444, 217.196 460.380 C 217.473 463.219, 217.814 463.500, 220.987 463.500 C 225.363 463.500, 226.516 461.292, 227.386 451.250 C 228.027 443.853, 227.463 442.646, 224.820 445.750 M 166 447 C 164.384 448.616, 163.986 450.394, 163.930 456.250 C 163.891 460.238, 163.497 464.400, 163.053 465.500 C 161.697 468.866, 163.701 470, 171.006 470 C 177.585 470, 177.861 469.896, 181.257 466.137 C 184.045 463.051, 184.984 460.911, 185.928 455.492 C 187.263 447.828, 186.986 447.249, 181.372 445.946 C 174.509 444.354, 168.215 444.785, 166 447 M 247.535 452.839 C 235.988 461.717, 233 465.535, 233 471.415 C 233 474.862, 233.727 476.365, 237.455 480.627 C 244.447 488.620, 250.951 490.057, 254.642 484.424 C 256.279 481.925, 256.244 481.825, 252.655 478.867 C 246.553 473.838, 248.216 469.333, 258.843 462.096 C 264.860 457.998, 267.314 455.578, 268.316 452.752 C 268.791 451.413, 267.716 450.304, 263.718 448.011 C 260.848 446.365, 258.275 445.055, 258 445.099 C 257.725 445.143, 253.016 448.626, 247.535 452.839 M 310 447.264 C 310 448.097, 310.873 449.841, 311.939 451.139 L 313.878 453.500 316.150 451.261 C 318.797 448.653, 318.014 447.353, 313.219 446.394 C 310.727 445.895, 310 446.092, 310 447.264 M 297 459.500 C 297 460.548, 298.056 461, 300.500 461 C 302.944 461, 304 460.548, 304 459.500 C 304 458.452, 302.944 458, 300.500 458 C 298.056 458, 297 458.452, 297 459.500 M 317.454 461.074 C 316.785 462.157, 320.642 467, 322.174 467 C 323.441 467, 323.154 462.554, 321.800 461.200 C 320.311 459.711, 318.332 459.653, 317.454 461.074 M 340.500 464.491 C 339.950 464.675, 338.275 465.095, 336.778 465.425 C 333.785 466.084, 329.763 469.808, 330.594 471.151 C 330.882 471.618, 333.566 472, 336.559 472 L 342 472 342 468 C 342 465.800, 341.887 464.036, 341.750 464.079 C 341.613 464.122, 341.050 464.308, 340.500 464.491 M 298.861 465.688 C 296.351 466.091, 296.273 466.279, 297.272 469.534 C 298.198 472.552, 298.629 472.884, 300.911 472.338 C 302.335 471.998, 304.793 471.067, 306.374 470.270 C 308.802 469.045, 309.035 468.611, 307.874 467.476 C 306.219 465.857, 302.457 465.111, 298.861 465.688 M 421.990 467.807 C 420.075 469.358, 419.858 470.200, 420.458 473.749 C 421.340 478.973, 423.024 480.406, 427.329 479.598 C 433.554 478.430, 437.026 472.574, 433.872 468.564 C 431.395 465.415, 425.415 465.034, 421.990 467.807 M 114.500 468.724 C 112.850 468.958, 103.624 470.665, 93.998 472.517 C 72.660 476.623, 55.911 478.469, 48.455 477.538 C 44.923 477.096, 40.146 475.398, 35.469 472.920 C 30.392 470.230, 26.804 469, 24.035 469 L 20 469 20 520 L 20 571 79.500 571 L 139 571 139 519.500 L 139 468 128.250 468.150 C 122.338 468.232, 116.150 468.491, 114.500 468.724 M 393.280 473.045 C 390.710 474.050, 389.728 477.074, 390.180 482.595 C 390.475 486.191, 390.757 486.525, 393.750 486.813 C 395.538 486.986, 397 487.371, 397 487.669 C 397 487.967, 396.256 490.976, 395.346 494.356 C 394.322 498.157, 393.675 504.505, 393.648 511 C 393.594 524.300, 395.753 532.399, 400.605 537.102 C 403.466 539.875, 404 541.094, 404 544.854 C 404 548.553, 404.707 550.232, 408.141 554.683 C 410.419 557.635, 412.411 559.922, 412.569 559.765 C 412.726 559.607, 412 550.390, 410.954 539.283 C 409.908 528.176, 408.978 511.981, 408.888 503.294 C 408.797 494.607, 408.280 486.938, 407.739 486.250 C 407.198 485.563, 405.412 485, 403.771 485 C 401.302 485, 400.919 484.697, 401.555 483.250 C 403.090 479.757, 403.267 474.036, 401.854 473.592 C 398.189 472.442, 395.294 472.257, 393.280 473.045 M 217.466 479.250 C 215.539 481.038, 213.563 483.926, 213.074 485.669 L 212.186 488.838 216.843 489.440 C 219.404 489.771, 222.850 489.656, 224.500 489.184 C 227.284 488.387, 227.496 487.996, 227.442 483.747 C 227.339 475.550, 223.380 473.765, 217.466 479.250 M 448.750 477.572 C 445.007 479.603, 445.136 483.095, 449.077 486.411 C 452.149 488.996, 454.432 489.539, 457.418 488.393 C 459.261 487.686, 459.610 481.008, 457.965 477.934 C 456.718 475.605, 452.668 475.446, 448.750 477.572 M 159.174 479.735 C 159.536 481.696, 170.581 487.616, 175.750 488.619 C 180.895 489.618, 179.877 486.623, 174.250 484.205 C 160.846 478.445, 158.825 477.845, 159.174 479.735 M 472.200 480.200 C 470.413 481.987, 470.747 487.467, 472.750 489.234 C 473.712 490.083, 475.981 491.092, 477.791 491.477 C 484.825 492.973, 488.818 485.996, 483.686 481.174 C 481.095 478.741, 474.241 478.159, 472.200 480.200 M 296.502 482.374 C 294.052 484.167, 294.691 484.913, 299.320 485.665 C 305.807 486.717, 313.482 484.118, 308.250 482.640 C 302.782 481.096, 298.384 480.996, 296.502 482.374 M 312.872 494.250 C 312.802 494.387, 312.639 495.512, 312.509 496.750 C 312.285 498.888, 312.616 499, 319.137 499 C 325.791 499, 326 498.924, 326 496.500 C 326 494.090, 325.767 494, 319.500 494 C 315.925 494, 312.943 494.113, 312.872 494.250 M 178 496.345 C 178 500.149, 188.009 503.024, 189.324 499.598 C 190.031 497.756, 189.177 497, 186.392 497 C 185.141 497, 183.840 496.550, 183.500 496 C 182.572 494.499, 178 494.786, 178 496.345 M 195.250 498.662 C 191.599 500.135, 195.973 506, 200.723 506 C 202.580 506, 203 505.454, 203 503.035 C 203 499.101, 199.315 497.022, 195.250 498.662 M 464.500 499.563 C 462.850 500.416, 461.012 501.651, 460.415 502.307 C 459.819 502.963, 457.625 510.588, 455.540 519.252 C 452.295 532.738, 451.813 536.191, 452.190 543.252 C 452.689 552.586, 454.525 557.500, 457.513 557.500 C 459.078 557.500, 459.909 556.173, 461.426 551.248 C 463.193 545.513, 463.646 544.915, 466.926 544.004 C 468.892 543.458, 471.486 543.009, 472.691 543.006 C 475.973 542.997, 476.232 541.732, 474.584 533.755 C 473.256 527.322, 473.250 525.643, 474.539 519.482 C 476.499 510.117, 476.411 508.745, 473.483 502.967 C 470.750 497.573, 469.365 497.048, 464.500 499.563 M 210.250 506.732 C 200.943 507.570, 207.792 514.848, 219.631 516.701 C 222.581 517.163, 222.865 516.921, 224.550 512.509 C 227.071 505.907, 225.675 505.343, 210.250 506.732 M 191.798 516.750 C 189.776 519.091, 185.961 534.795, 185.300 543.500 C 184.938 548.259, 185.205 551.528, 186.134 553.712 L 187.500 556.925 197.965 550.712 C 203.721 547.296, 211.553 541.545, 215.370 537.934 C 221.353 532.271, 222.221 531.017, 221.672 528.828 C 221.315 527.406, 219.276 525.125, 217.039 523.644 C 213.840 521.528, 211.853 521, 207.080 521 C 201.171 521, 198.458 522.409, 201.122 524.096 C 201.880 524.577, 204.101 524.976, 206.059 524.985 C 210.271 525.003, 213.668 527.110, 212.509 528.985 C 211.908 529.958, 209.643 530.114, 203.237 529.621 C 198.575 529.263, 194.364 528.725, 193.880 528.426 C 192.565 527.613, 192.881 523.832, 194.500 521 C 196.318 517.820, 196.391 515, 194.655 515 C 193.915 515, 192.630 515.788, 191.798 516.750 M 320.315 520.061 C 319.114 520.515, 317.661 521.765, 317.086 522.839 C 315.691 525.446, 318.047 527.456, 321.487 526.593 C 323.454 526.099, 324 525.327, 324 523.040 C 324 519.566, 323.243 518.954, 320.315 520.061 M 233.227 529.932 C 229.881 532.094, 226.601 534.877, 225.939 536.115 C 224.899 538.058, 225.041 538.615, 226.978 540.183 C 228.212 541.182, 229.847 542, 230.611 542 C 231.375 542, 232 542.450, 232 543 C 232 543.550, 231.605 544, 231.122 544 C 230.639 544, 227.039 546.967, 223.122 550.594 C 217.889 555.438, 216 557.862, 216 559.730 C 216 562.179, 216.170 562.249, 220.640 561.636 C 223.191 561.286, 229.698 561, 235.099 561 L 244.920 561 246.103 557.052 C 246.948 554.230, 247.002 551.668, 246.291 548.073 C 245.421 543.675, 245.529 542.831, 247.148 541.366 C 248.167 540.444, 249 539.256, 249 538.726 C 249 536.836, 241.832 526, 240.583 526 C 239.883 526, 236.573 527.769, 233.227 529.932 M 293 530.500 C 293 531.611, 294.167 532, 297.500 532 C 300.833 532, 302 531.611, 302 530.500 C 302 529.389, 300.833 529, 297.500 529 C 294.167 529, 293 529.389, 293 530.500 M 318.499 538.551 C 315.966 539.898, 313.420 541, 312.841 541 C 312.262 541, 310.903 542.125, 309.821 543.500 C 308.320 545.408, 306.926 546, 303.927 546 C 300.263 546, 300 546.194, 300 548.892 C 300 554.691, 306.693 553.958, 319.109 546.800 C 325.050 543.375, 326 542.440, 326 540.021 C 326 536.112, 323.871 535.695, 318.499 538.551 M 236.693 540.402 C 232.393 543.046, 233.277 544, 240.023 544 C 244.514 544, 245.572 542.889, 243.793 540.041 C 242.189 537.472, 241.394 537.513, 236.693 540.402 M 314.338 558.999 C 311.491 560.147, 310.352 563.781, 312.246 565.674 C 313.514 566.943, 314.085 566.799, 316.777 564.534 L 319.857 561.942 323.179 563.968 C 326.912 566.244, 331.003 566.597, 332.800 564.800 C 334.709 562.891, 334.296 562.374, 329.065 560.123 C 323.963 557.929, 318.101 557.481, 314.338 558.999" stroke="none" fill="#f8f9f9" fill-rule="evenodd"/><path d="M 20 209.500 L 20 399 295.500 399 L 571 399 571 209.500 L 571 20 295.500 20 L 20 20 20 209.500 M 42.750 171.080 C 41.627 171.734, 41 173.316, 41 175.493 C 41 180.918, 43.530 182, 56.223 182 L 67 182 67.014 212.250 C 67.021 228.887, 67.289 243.476, 67.609 244.668 C 68.477 247.905, 73.130 249.526, 76.675 247.827 L 79.500 246.474 79.764 214.237 L 80.028 182 91.291 182 C 104.057 182, 107 180.894, 107 176.098 C 107 170.126, 106.296 169.997, 73.921 170.030 C 55.805 170.049, 43.828 170.452, 42.750 171.080 M 117.655 171.829 C 116.180 173.458, 116 177.540, 116 209.329 C 116 243.667, 116.075 245.075, 118 247 C 119.897 248.897, 121.323 248.999, 145.750 248.985 C 174.603 248.969, 176.288 248.653, 176.818 243.162 C 177.407 237.067, 177.136 237, 151.878 237 L 129 237 129 226 L 129 215 148.943 215 C 168.100 215, 168.945 214.917, 170.365 212.890 C 171.178 211.729, 171.670 209.883, 171.459 208.788 C 170.565 204.146, 169.878 204, 148.878 204 L 129 204 129 193 L 129 182 150 182 C 169.667 182, 171.127 181.873, 173 180 C 175.496 177.504, 175.571 173.827, 173.171 171.655 C 171.568 170.204, 168.131 170, 145.326 170 C 121.392 170, 119.178 170.146, 117.655 171.829 M 190.559 171.583 C 189.161 172.981, 189.007 177.576, 189.238 210.833 L 189.500 248.500 214.640 248.767 C 228.718 248.916, 240.873 248.618, 242.264 248.090 C 245.509 246.856, 246.617 242.591, 244.523 239.394 L 242.954 237 222.477 237 L 202 237 202 205.723 C 202 170.626, 201.886 170, 195.515 170 C 193.660 170, 191.430 170.713, 190.559 171.583 M 254.750 171.080 C 253.133 172.022, 253 174.913, 253 209.027 L 253 245.954 255.396 247.524 C 257.454 248.872, 261.570 249.052, 284.478 248.797 C 309.553 248.518, 311.249 248.383, 312.582 246.559 C 314.449 244.003, 314.382 240.525, 312.429 238.571 C 311.093 237.236, 307.485 237, 288.429 237 L 266 237 266 226 L 266 215 285.800 215 C 307.327 215, 308 214.833, 308 209.500 C 308 204.167, 307.327 204, 285.800 204 L 266 204 266 193 L 266 182 286.809 182 C 309.849 182, 311.333 181.649, 311.333 176.195 C 311.333 169.979, 311.415 169.997, 282.628 170.030 C 266.749 170.049, 255.814 170.461, 254.750 171.080 M 336.384 171.913 C 334.120 172.941, 331.097 175.318, 329.666 177.194 C 325.555 182.583, 324.767 188.829, 325.171 212.816 C 325.559 235.828, 325.747 236.801, 330.872 242.339 C 336.088 247.974, 337.964 248.427, 357.779 248.825 C 378.741 249.246, 381 248.648, 381 242.677 C 381 237.278, 380.117 237, 362.949 237 C 337.686 237, 338 237.346, 338 209.500 C 338 189.751, 338.830 185.232, 342.850 183.080 C 344.045 182.441, 351.142 182, 360.243 182 C 377.563 182, 379.374 181.435, 379.221 176.080 C 379.052 170.137, 378.578 169.998, 358.628 170.022 C 343.088 170.041, 339.912 170.311, 336.384 171.913 M 403.459 171.847 C 398.514 174.133, 394.421 178.822, 393.044 183.781 C 391.646 188.815, 391.706 229.398, 393.119 234.500 C 394.671 240.104, 397.485 243.686, 402.334 246.234 C 405.977 248.148, 408.448 248.471, 422.022 248.811 C 439.768 249.255, 444.315 248.418, 449.662 243.724 C 455.726 238.399, 456 236.898, 456 208.992 C 456 180.355, 455.547 178.378, 447.807 173.251 C 443.706 170.535, 443.427 170.497, 425.577 170.240 C 409.686 170.011, 407.011 170.205, 403.459 171.847 M 475.571 171.571 C 474.201 172.941, 474 177.725, 474 208.880 C 474 248.835, 473.928 248.400, 480.500 248.400 C 486.887 248.400, 487 247.883, 487 218.667 L 487 192.716 496.093 205.358 C 505.038 217.794, 505.250 218, 509.047 218 C 512.847 218, 513.048 217.804, 521.954 205.347 L 531 192.694 531 218.656 C 531 247.713, 531.145 248.400, 537.289 248.400 C 544.249 248.400, 544 249.864, 544 208.913 C 544 173.511, 543.924 172.030, 542.066 171.035 C 541.002 170.466, 538.792 170, 537.155 170 C 533.606 170, 533.060 170.613, 519.500 189.805 C 514 197.589, 509.275 203.943, 509 203.925 C 508.725 203.907, 504.225 197.748, 499 190.239 C 486.069 171.654, 484.554 170, 480.468 170 C 478.639 170, 476.436 170.707, 475.571 171.571 M 408.201 184.028 C 407.004 185.143, 405.767 187.079, 405.453 188.331 C 405.139 189.582, 405.021 199.908, 405.191 211.277 C 405.586 237.693, 404.675 236.357, 422.616 236.833 C 435.777 237.183, 440.236 236.296, 442.012 232.977 C 442.527 232.015, 442.990 221.166, 443.040 208.869 L 443.132 186.510 440.510 184.255 C 438.064 182.151, 436.965 182, 424.133 182 C 411.697 182, 410.168 182.195, 408.201 184.028 M 157.259 263.602 C 148.259 266.909, 142.535 278.124, 144.951 287.718 C 147.392 297.414, 152.468 300.898, 168 303.540 C 179.692 305.529, 183.081 307.336, 184.787 312.493 C 186.303 317.075, 185.664 320.886, 182.763 324.574 C 179.880 328.239, 175.148 330, 168.181 330 C 161.012 330, 156.642 328.642, 151.881 324.935 L 148.262 322.117 145.461 325.041 C 142.729 327.893, 142.704 328.016, 144.488 329.987 C 145.494 331.099, 148.785 333.215, 151.800 334.691 C 162.539 339.945, 179.332 338.799, 187.075 332.284 C 196.216 324.592, 196.372 308.157, 187.370 301.077 C 184.340 298.693, 177.993 296.790, 167.018 294.973 C 160.771 293.940, 158.996 293.196, 156.268 290.468 C 153.607 287.807, 153 286.414, 153 282.968 C 153 277.641, 155.980 272.673, 160.259 270.868 C 165.800 268.529, 174.864 269.257, 180.861 272.521 L 186.089 275.366 188.756 272.698 C 191.378 270.077, 191.390 270.004, 189.462 268.493 C 183.737 264.006, 179.499 262.630, 170.500 262.337 C 164.201 262.132, 160.227 262.512, 157.259 263.602 M 296 275.970 L 296 289.940 292.250 287.382 C 288.927 285.116, 287.692 284.864, 281.407 285.174 C 267.823 285.843, 263.500 292.326, 263.500 312.029 C 263.500 322.382, 263.758 324.066, 266.027 328.529 C 269.486 335.333, 275.045 338.269, 283.543 337.780 C 287.779 337.536, 290.522 336.764, 292.721 335.199 L 295.856 332.966 296.178 335.233 C 296.443 337.096, 297.124 337.500, 300 337.500 L 303.500 337.500 303.762 299.750 L 304.024 262 300.012 262 L 296 262 296 275.970 M 323.238 299.750 L 323.500 337.500 327.500 337.500 L 331.500 337.500 331.776 322.347 L 332.051 307.195 345.276 306.818 C 359.461 306.414, 363.760 305.133, 368.702 299.834 C 374.068 294.082, 375.661 282.253, 372.120 274.459 C 367.709 264.748, 360.252 262, 338.306 262 L 322.976 262 323.238 299.750 M 483 266.500 L 483 271 487.500 271 L 492 271 492 266.500 L 492 262 487.500 262 L 483 262 483 266.500 M 332 284.397 L 332 299 343.250 298.998 C 355.715 298.997, 359.705 297.754, 363.393 292.725 C 366.021 289.141, 366.187 280.461, 363.700 276.665 C 360.270 271.431, 357.585 270.529, 344.295 270.147 L 332 269.794 332 284.397 M 207.714 285.619 C 206.676 286.657, 206.884 319.793, 207.957 324.423 C 209.209 329.819, 211.834 333.100, 217.020 335.750 C 223.014 338.812, 230.151 338.747, 235.692 335.579 L 239.885 333.181 240.192 335.331 C 240.531 337.696, 242.850 338.506, 246.596 337.565 L 249.034 336.953 248.767 311.227 L 248.500 285.500 244.500 285.500 L 240.500 285.500 239.991 304.500 C 239.712 314.950, 239.111 324.261, 238.657 325.190 C 236.633 329.335, 228.974 331.807, 223.624 330.041 C 216.805 327.791, 216.555 326.975, 216 305.148 L 215.500 285.500 211.964 285.202 C 210.020 285.039, 208.107 285.226, 207.714 285.619 M 391.500 286.863 C 386.331 289.215, 384.276 291.629, 385.625 293.767 C 387.747 297.131, 389.446 297.315, 393.430 294.612 C 396.232 292.710, 398.560 292, 401.990 292 C 411.311 292, 414.554 294.470, 415.640 302.392 L 416.236 306.739 404.790 307.177 C 392.295 307.656, 388.606 308.955, 384.640 314.275 C 381.789 318.101, 381.766 326.870, 384.598 330.663 C 388.906 336.434, 391.437 337.500, 400.823 337.500 C 408.296 337.500, 409.951 337.178, 412.750 335.182 L 416 332.864 416 335.492 C 416 337.918, 416.289 338.097, 419.750 337.810 L 423.500 337.500 423.770 318 C 424.026 299.433, 423.931 298.285, 421.770 294 C 418.549 287.614, 413.080 284.993, 403.038 285.022 C 397.921 285.037, 394.215 285.628, 391.500 286.863 M 440.474 286.207 C 440.194 286.938, 440.085 298.772, 440.232 312.505 C 440.482 335.783, 440.624 337.497, 442.329 337.825 C 443.335 338.019, 445.248 337.904, 446.579 337.570 L 449 336.962 449 318.931 C 449 298.573, 449.695 295.861, 455.534 293.421 C 460.106 291.511, 462.892 291.637, 466.641 293.923 L 469.781 295.838 472.500 293 C 475.547 289.820, 475.255 288.701, 470.780 286.386 C 466.346 284.094, 456.032 284.861, 452.089 287.776 L 449.134 289.961 448.817 287.730 C 448.563 285.944, 447.752 285.438, 444.742 285.189 C 442.302 284.987, 440.805 285.344, 440.474 286.207 M 483.474 286.207 C 483.194 286.938, 483.085 298.778, 483.232 312.518 L 483.500 337.500 487.500 337.500 L 491.500 337.500 491.500 311.500 L 491.500 285.500 487.742 285.189 C 485.302 284.987, 483.805 285.344, 483.474 286.207 M 515.020 287.250 C 509.456 290.093, 506.900 293.591, 506.335 299.136 C 505.831 304.078, 508.122 308.724, 512.468 311.571 C 513.910 312.516, 519.384 313.817, 524.981 314.545 C 530.452 315.256, 535.423 316.143, 536.026 316.516 C 538.164 317.837, 539.148 322.228, 537.954 325.112 C 535.123 331.946, 518.065 332.894, 511.114 326.603 C 509.495 325.138, 509.147 325.237, 506.607 327.888 L 503.855 330.761 507 333 C 513.433 337.580, 525.628 339.342, 534.277 336.940 C 545.540 333.812, 550.338 321.309, 543.427 313.096 C 540.489 309.604, 537.004 308.363, 527.500 307.426 C 518.614 306.550, 516.249 305.641, 514.848 302.565 C 513.365 299.311, 515.214 294.679, 518.615 293.130 C 522.594 291.316, 531.101 291.757, 535.510 294.005 L 539.444 296.011 541.892 293.563 C 544.965 290.489, 543.860 288.822, 537.260 286.573 C 530.319 284.208, 520.382 284.510, 515.020 287.250 M 277.420 293.827 C 272.914 296.661, 271.500 301, 271.500 312 C 271.500 323.454, 273.326 327.589, 279.406 329.903 C 282.732 331.169, 283.757 331.173, 287.275 329.930 C 293.590 327.697, 295.311 324.532, 295.800 314.255 C 296.504 299.456, 293.369 293.200, 284.812 292.329 C 281.696 292.012, 279.646 292.428, 277.420 293.827 M 394.282 315.206 C 391.098 316.743, 389.494 322.172, 391.182 325.692 C 392.930 329.339, 396.417 330.968, 402.500 330.982 C 411.376 331.001, 415.975 326.150, 415.994 316.750 L 416 314 406.250 314.068 C 400.887 314.105, 395.502 314.617, 394.282 315.206" stroke="none" fill="#182532" fill-rule="evenodd"/></svg>