<svg xmlns="http://www.w3.org/2000/svg" width="224" height="224" viewBox="0 0 224 224" version="1.1"><path d="M 152.127 130.250 C 152.197 137.537, 152.535 148.344, 152.877 154.265 L 153.500 165.030 177.492 141.015 L 201.484 117 176.742 117 L 152 117 152.127 130.250" stroke="none" fill="#000000" fill-rule="evenodd"/><path d="M 11 42.500 L 11 54 78 54 L 145 54 145 42.500 L 145 31 78 31 L 11 31 11 42.500 M 11 70.500 L 11 82 78 82 L 145 82 145 70.500 L 145 59 78 59 L 11 59 11 70.500 M 11 99.500 L 11 110 78 110 L 145 110 145 99.500 L 145 89 78 89 L 11 89 11 99.500 M 11 128 L 11 139 78 139 L 145 139 145 128 L 145 117 78 117 L 11 117 11 128 M 11 156 L 11 167 78 167 L 145 167 145 156 L 145 145 78 145 L 11 145 11 156 M 152.355 154.500 C 152.352 159.450, 152.521 161.601, 152.731 159.280 C 152.940 156.959, 152.943 152.909, 152.736 150.280 C 152.530 147.651, 152.358 149.550, 152.355 154.500" stroke="none" fill="#b41c1c" fill-rule="evenodd"/><path d="M -0 112.004 L -0 224.009 112.250 223.754 L 224.500 223.500 224.754 111.750 L 225.009 -0 112.504 -0 L 0 0 -0 112.004 M 0.483 112.500 C 0.483 174.100, 0.603 199.153, 0.750 168.173 C 0.897 137.193, 0.897 86.793, 0.750 56.173 C 0.603 25.553, 0.483 50.900, 0.483 112.500 M 11 42.500 L 11 54 78 54 L 145 54 145 42.500 L 145 31 78 31 L 11 31 11 42.500 M 11 70.500 L 11 82 78 82 L 145 82 145 70.500 L 145 59 78 59 L 11 59 11 70.500 M 11 99.500 L 11 110 78 110 L 145 110 145 99.500 L 145 89 78 89 L 11 89 11 99.500 M 11 128 L 11 139 78 139 L 145 139 145 128 L 145 117 78 117 L 11 117 11 128 M 152.015 139.750 C 152.024 152.262, 152.379 163.048, 152.805 163.718 C 153.324 164.535, 161.476 157.034, 177.532 140.968 L 201.484 117 176.742 117 L 152 117 152.015 139.750 M 11 156 L 11 167 78 167 L 145 167 145 156 L 145 145 78 145 L 11 145 11 156" stroke="none" fill="#f2f1f1" fill-rule="evenodd"/></svg>